<?xml version="1.0" encoding="UTF-8"?>
<svg version="1.1" xmlns="http://www.w3.org/2000/svg" width="280" height="280">
<path d="M0 0 C9.84311502 4.87701853 15.37431644 19.7168702 18.90625 29.4296875 C22.4473794 40.98894562 25.14965083 53.13135719 25.09765625 65.24609375 C25.09553383 66.23005882 25.09553383 66.23005882 25.09336853 67.23390198 C25.08783031 69.30181702 25.07529002 71.36961842 25.0625 73.4375 C25.05747699 74.85090988 25.0529155 76.26432148 25.04882812 77.67773438 C25.03788126 81.11852568 25.02066038 84.55925172 25 88 C25.72662842 87.52224121 26.45325684 87.04448242 27.2019043 86.55224609 C28.17039307 85.92398926 29.13888184 85.29573242 30.13671875 84.6484375 C31.09022217 84.02630371 32.04372559 83.40416992 33.02612305 82.76318359 C43.95724238 76.28222605 57.53879611 74.28822948 69.88671875 77.33984375 C74.24673508 78.70184515 77.23715958 80.21759957 80.4375 83.5 C85.13756989 88.08543403 89.62996309 89.00221188 95.9375 89.8125 C102.20023442 90.78790734 105.31227015 92.91346947 110 97 C111.68619296 98.32936594 113.38781776 99.63761116 115.08935547 100.94726562 C133.06350061 114.83270827 133.06350061 114.83270827 135 120 C135.5493863 126.08903148 133.57290618 130.41636396 129.9609375 135.17578125 C125.22575004 139.58082616 121.81620263 141.26547314 115.3828125 141.1796875 C112.24411741 141.05667922 109.11473547 140.8743242 105.98046875 140.66796875 C98.31617211 140.38768552 93.76062919 141.86628329 88 147 C86.19745597 148.92517398 84.62329178 150.91291057 83 153 C81.68855481 154.02853745 80.35852784 155.03450537 79 156 C79.82177734 156.60521484 79.82177734 156.60521484 80.66015625 157.22265625 C91.87117735 165.80865778 106.40345975 177.21037926 111 191 C111.36795288 195.96736392 111.2446074 199.10647112 108 203 C101.81841975 206.68264356 96.4602354 207.21867775 89.375 207.25 C88.12867798 207.25918457 88.12867798 207.25918457 86.85717773 207.26855469 C79.98951817 207.21931022 73.47049588 206.28550515 66.78857422 204.71582031 C64.42339897 204.16529998 64.42339897 204.16529998 61 204 C56.83467706 206.97135415 55.111968 211.10884348 54 216 C53.81557193 218.35145792 53.67266857 220.70639496 53.5625 223.0625 C53.18920562 230.03563902 52.16073958 234.1181492 46.875 238.9375 C45 240 45 240 43 240 C42.96261719 240.59167969 42.92523438 241.18335938 42.88671875 241.79296875 C42.36631228 248.04805045 41.37816613 251.80958383 36.625 256.1875 C33.06303284 258.64695351 30.35319922 260 26 260 C25.835 260.70125 25.67 261.4025 25.5 262.125 C22.93491411 267.04141463 18.21681751 270.26106083 13 272 C8.38895034 272.4063976 4.28325696 272.49758943 -0.0625 270.8125 C-2.41729253 268.60962957 -2.74310052 267.16842693 -3 264 C-3.66 264 -4.32 264 -5 264 C-5.3403125 265.1446875 -5.3403125 265.1446875 -5.6875 266.3125 C-7.36264849 269.74256596 -8.46213383 270.56979878 -12 272 C-19.24017756 273.30208727 -24.98509075 270.97394364 -31 267 C-35 262.9047619 -35 262.9047619 -35 260 C-35.86625 259.9175 -36.7325 259.835 -37.625 259.75 C-42.82896831 258.5935626 -45.90336427 256.30410736 -49.3125 252.25 C-50.87698119 249.23692512 -51.19018243 248.08247914 -51.375 244.875 C-51.684375 242.956875 -51.684375 242.956875 -52 241 C-53.95890881 239.60699818 -55.9639118 238.27754554 -58 237 C-62.72936276 231.39376451 -62.15913024 225.33911163 -61.95703125 218.35546875 C-62.0254535 213.01231342 -63.27460373 209.18992603 -66.625 204.9375 C-71.13307684 203.15799598 -75.81532414 204.53010182 -80.43359375 205.5234375 C-92.51285633 208.06063421 -106.74939023 209.36289635 -117.5 202.375 C-119.85849177 198.64072137 -120.48440496 195.39424504 -120 191 C-114.89518875 177.43895794 -99.42070986 164.29392618 -88 156 C-88.59167969 155.48050781 -89.18335938 154.96101562 -89.79296875 154.42578125 C-97.02983897 148.03891862 -97.02983897 148.03891862 -99.8125 145.125 C-102.62467557 142.39317231 -104.60142304 141.08929355 -108.56201172 140.83642578 C-109.50834473 140.8723584 -110.45467773 140.90829102 -111.4296875 140.9453125 C-112.47253906 140.96980469 -113.51539063 140.99429688 -114.58984375 141.01953125 C-116.77240888 141.08960171 -118.95473248 141.16767206 -121.13671875 141.25390625 C-127.31872759 141.38349213 -131.17883312 141.32826803 -136 137 C-136.60328125 136.45859375 -137.2065625 135.9171875 -137.828125 135.359375 C-141.41346714 131.30124049 -143.82449426 127.53939996 -144 122 C-140.44216622 108.48023162 -122.27985595 97.90495855 -111 91 C-108.52715183 89.76357592 -106.69865132 89.85873732 -103.9375 89.75 C-96.82957145 89.16310682 -91.8631888 86.37435169 -86.4375 81.875 C-79.11797133 76.24459333 -70.07088598 75.46866607 -61.16015625 76.40234375 C-50.59601637 77.97351208 -41.56427506 81.47828869 -33 88 C-33.01571045 87.31711914 -33.0314209 86.63423828 -33.04760742 85.93066406 C-33.61061775 57.56634605 -31.75700074 24.91823155 -11 3 C-7.23443023 -0.206618 -4.99897398 -0.76255535 0 0 Z " fill="#D41091" transform="translate(144,6)"/>
<path d="M0 0 C9.84311502 4.87701853 15.37431644 19.7168702 18.90625 29.4296875 C22.4473794 40.98894562 25.14965083 53.13135719 25.09765625 65.24609375 C25.09553383 66.23005882 25.09553383 66.23005882 25.09336853 67.23390198 C25.08783031 69.30181702 25.07529002 71.36961842 25.0625 73.4375 C25.05747699 74.85090988 25.0529155 76.26432148 25.04882812 77.67773438 C25.03788126 81.11852568 25.02066038 84.55925172 25 88 C25.72662842 87.52224121 26.45325684 87.04448242 27.2019043 86.55224609 C28.17039307 85.92398926 29.13888184 85.29573242 30.13671875 84.6484375 C31.09022217 84.02630371 32.04372559 83.40416992 33.02612305 82.76318359 C43.95724238 76.28222605 57.53879611 74.28822948 69.88671875 77.33984375 C74.24673508 78.70184515 77.23715958 80.21759957 80.4375 83.5 C85.13756989 88.08543403 89.62996309 89.00221188 95.9375 89.8125 C102.20023442 90.78790734 105.31227015 92.91346947 110 97 C111.68619296 98.32936594 113.38781776 99.63761116 115.08935547 100.94726562 C133.06350061 114.83270827 133.06350061 114.83270827 135 120 C135.5493863 126.08903148 133.57290618 130.41636396 129.9609375 135.17578125 C125.22575004 139.58082616 121.81620263 141.26547314 115.3828125 141.1796875 C112.24411741 141.05667922 109.11473547 140.8743242 105.98046875 140.66796875 C98.31617211 140.38768552 93.76062919 141.86628329 88 147 C86.19745597 148.92517398 84.62329178 150.91291057 83 153 C81.68855481 154.02853745 80.35852784 155.03450537 79 156 C79.82177734 156.60521484 79.82177734 156.60521484 80.66015625 157.22265625 C91.87117735 165.80865778 106.40345975 177.21037926 111 191 C111.36795288 195.96736392 111.2446074 199.10647112 108 203 C97.39009559 209.32079411 82.97941749 208.22399395 71.3125 205.5 C69.53559444 205.02202789 67.76168023 204.53135059 66 204 C66 202.68 66 201.36 66 200 C67.41702513 200.14230808 68.8336096 200.28900746 70.25 200.4375 C71.43335938 200.55931641 71.43335938 200.55931641 72.640625 200.68359375 C75 201 75 201 76.89453125 201.50708008 C80.48202013 202.34696181 84.08026749 202.22601482 87.75 202.25 C88.5234375 202.270625 89.296875 202.29125 90.09375 202.3125 C95.72138278 202.35026935 99.83608867 201.24005286 105 199 C106.2031921 194.64999779 106.36293418 191.95325327 104.3125 187.875 C92.96657248 169.54696324 75.24107892 157.30459835 55 151 C55 150.67 55 150.34 55 150 C56.41655793 149.9727585 57.83327045 149.95349533 59.25 149.9375 C60.03890625 149.92589844 60.8278125 149.91429687 61.640625 149.90234375 C63.92432678 149.99686783 65.7989215 150.42145565 68 151 C72.94387147 151.62922 76.02548558 151.65592317 80.25 148.8125 C81.61125 147.4203125 81.61125 147.4203125 83 146 C92.91754886 136.08245114 92.91754886 136.08245114 98.46435547 135.93408203 C99.42229004 135.95841309 100.38022461 135.98274414 101.3671875 136.0078125 C102.94306641 136.03294922 102.94306641 136.03294922 104.55078125 136.05859375 C106.75928807 136.10271198 108.96765163 136.15474081 111.17578125 136.21484375 C112.22894531 136.22902344 113.28210938 136.24320313 114.3671875 136.2578125 C115.32737793 136.2798877 116.28756836 136.30196289 117.27685547 136.32470703 C121.93544376 135.7692182 124.52499417 133.46445015 127.8125 130.25 C130.18824464 127.15146185 130.18824464 127.15146185 130.75 123.5625 C128.71819009 113.91140292 114.82750372 106.21833581 107 101 C107 100.34 107 99.68 107 99 C106.4225 98.71125 105.845 98.4225 105.25 98.125 C103.8802014 97.4401007 102.52447177 96.7245856 101.19921875 95.95703125 C98.56688218 94.81152067 96.42350367 94.69344746 93.5625 94.5625 C89.21603101 94.24460666 86.58273943 93.60562868 83 91 C80.80869466 90.30420546 80.80869466 90.30420546 79 90 C78.9175 89.38125 78.835 88.7625 78.75 88.125 C78.2108099 85.8605008 78.2108099 85.8605008 76.19921875 84.96875 C75.47347656 84.6490625 74.74773437 84.329375 74 84 C73.37222656 83.71898438 72.74445313 83.43796875 72.09765625 83.1484375 C60.91634391 78.89910959 49.86011048 80.54527952 39 85 C32.38566147 88.20752715 27.05805463 92.44639513 21.71484375 97.4609375 C20 99 20 99 19 99 C19.24169922 97.24042969 19.24169922 97.24042969 19.48828125 95.4453125 C20.16981826 89.27167283 20.18605224 83.10628941 20.18530273 76.90039062 C20.18747321 74.89969786 20.20593966 72.89904433 20.22460938 70.8984375 C20.24233097 58.89500883 19.39885751 47.09079637 15.625 35.625 C15.40948486 34.96290527 15.19396973 34.30081055 14.97192383 33.61865234 C13.29598566 28.58158533 11.23777225 23.80706631 9 19 C9 18.34 9 17.68 9 17 C8.01 16.67 7.02 16.34 6 16 C6 15.01 6 14.02 6 13 C5.34 13 4.68 13 4 13 C4 12.01 4 11.02 4 10 C3.01 9.67 2.02 9.34 1 9 C0.01 7.515 0.01 7.515 -1 6 C-3.79219782 5.87571136 -3.79219782 5.87571136 -7 7 C-8.78990809 8.98738621 -10.24033391 11.04771505 -11.703125 13.28515625 C-12.13109375 13.85105469 -12.5590625 14.41695312 -13 15 C-13.66 15 -14.32 15 -15 15 C-15.37125 16.2375 -15.37125 16.2375 -15.75 17.5 C-16.68454484 20.11672555 -17.62254449 22.25801205 -18.9140625 24.67578125 C-21.04801786 28.89810292 -22.40587341 33.12780613 -23.625 37.6875 C-23.82867187 38.40099609 -24.03234375 39.11449219 -24.2421875 39.84960938 C-27.3565582 51.21905884 -28.31159119 62.47423107 -28.20581055 74.21313477 C-28.18736692 76.3277581 -28.18530311 78.44194449 -28.18554688 80.55664062 C-28.16798179 87.10726419 -28.04722341 93.52397043 -27 100 C-27.99 99.13375 -28.98 98.2675 -30 97.375 C-31.3292299 96.24515459 -32.66274415 95.12033458 -34 94 C-34.61359375 93.48566406 -35.2271875 92.97132812 -35.859375 92.44140625 C-46.37479411 84.07686832 -58.58912574 79.78929607 -72 81 C-78.71503117 82.30676033 -83.76744009 84.32663646 -88.375 89.5625 C-92.59851455 93.29868595 -96.99414736 94.10320985 -102.4375 94.375 C-111.6370744 95.0508871 -117.31405551 100.92081731 -124.171875 106.6484375 C-127.75777004 109.63007951 -131.42590064 112.50129466 -135.1015625 115.37109375 C-137.76424071 117.6557374 -137.96555888 118.64870059 -138.3125 122.1875 C-137.87323933 127.54648013 -136.20124481 131.06059681 -132.0625 134.70703125 C-126.53835858 137.03928994 -120.53281564 136.07039062 -114.63476562 135.79492188 C-106.86554569 135.58740525 -101.81942942 136.85657579 -95.79296875 141.81640625 C-95.26316406 142.39261719 -94.73335937 142.96882812 -94.1875 143.5625 C-93.64480469 144.14128906 -93.10210937 144.72007812 -92.54296875 145.31640625 C-92.03378906 145.87199219 -91.52460937 146.42757812 -91 147 C-87.94089993 150.21091645 -86.77418965 150.97502614 -82.125 151.125 C-79.99318938 151.13310574 -78.18920468 151.04971424 -76.12402344 150.50708008 C-74.00878772 150.00209794 -72.11516008 149.82959861 -69.9453125 149.75390625 C-69.17380859 149.72224365 -68.40230469 149.69058105 -67.60742188 149.65795898 C-66.78822266 149.62645752 -65.96902344 149.59495605 -65.125 149.5625 C-59.49716919 149.31778872 -54.05384896 148.93578678 -48.5 147.9375 C-37.15387383 146.10089684 -25.45549669 146.83886447 -14 147 C-15.4235749 150.75647327 -16.88750326 153.2453572 -19.5625 156.25 C-23.21992796 160.66255222 -25.72743325 165.15310695 -28.25 170.25 C-32.30982339 178.32967916 -37.41629246 184.60793186 -43.46386719 191.26757812 C-46.09217569 194.23173533 -48.54976084 197.32578785 -51 200.4375 C-51.44456543 200.99268311 -51.88913086 201.54786621 -52.34716797 202.11987305 C-55.31227403 205.89338689 -57.69935494 209.78747628 -60 214 C-60.99 213.67 -61.98 213.34 -63 213 C-63.309375 212.05125 -63.61875 211.1025 -63.9375 210.125 C-64.78820238 207.03545727 -64.78820238 207.03545727 -66.5625 205.0625 C-71.06938576 203.09796005 -75.75916147 204.51802189 -80.43359375 205.5234375 C-92.51285633 208.06063421 -106.74939023 209.36289635 -117.5 202.375 C-119.85849177 198.64072137 -120.48440496 195.39424504 -120 191 C-114.89518875 177.43895794 -99.42070986 164.29392618 -88 156 C-88.59167969 155.48050781 -89.18335938 154.96101562 -89.79296875 154.42578125 C-97.02983897 148.03891862 -97.02983897 148.03891862 -99.8125 145.125 C-102.62467557 142.39317231 -104.60142304 141.08929355 -108.56201172 140.83642578 C-109.50834473 140.8723584 -110.45467773 140.90829102 -111.4296875 140.9453125 C-112.47253906 140.96980469 -113.51539063 140.99429688 -114.58984375 141.01953125 C-116.77240888 141.08960171 -118.95473248 141.16767206 -121.13671875 141.25390625 C-127.31872759 141.38349213 -131.17883312 141.32826803 -136 137 C-136.60328125 136.45859375 -137.2065625 135.9171875 -137.828125 135.359375 C-141.41346714 131.30124049 -143.82449426 127.53939996 -144 122 C-140.44216622 108.48023162 -122.27985595 97.90495855 -111 91 C-108.52715183 89.76357592 -106.69865132 89.85873732 -103.9375 89.75 C-96.82957145 89.16310682 -91.8631888 86.37435169 -86.4375 81.875 C-79.11797133 76.24459333 -70.07088598 75.46866607 -61.16015625 76.40234375 C-50.59601637 77.97351208 -41.56427506 81.47828869 -33 88 C-33.01571045 87.31711914 -33.0314209 86.63423828 -33.04760742 85.93066406 C-33.61061775 57.56634605 -31.75700074 24.91823155 -11 3 C-7.23443023 -0.206618 -4.99897398 -0.76255535 0 0 Z " fill="#E3238D" transform="translate(144,6)"/>
<path d="M0 0 C15.46562555 7.74198574 32.26294323 21.38331635 39.29296875 37.6484375 C39.29296875 41.3359375 39.29296875 41.3359375 38.29296875 44.6484375 C31.0483806 50.52242789 20.107458 49.25005842 11.29296875 48.6484375 C6.86891907 48.02213206 2.57376292 46.91906192 -1.70703125 45.6484375 C-1.70703125 46.9684375 -1.70703125 48.2884375 -1.70703125 49.6484375 C-2.77953125 49.6278125 -3.85203125 49.6071875 -4.95703125 49.5859375 C-8.72254184 50.20768835 -8.72254184 50.20768835 -9.95703125 52.578125 C-10.61308432 54.14137646 -11.22451266 55.7242689 -11.78515625 57.32421875 C-12.76772744 59.80146391 -14.03060593 61.59057833 -15.70703125 63.6484375 C-15.93777344 63.00777344 -16.16851562 62.36710937 -16.40625 61.70703125 C-18.54624614 56.03138931 -20.642801 51.19650469 -24.70703125 46.6484375 C-27.87702269 45.60226659 -27.87702269 45.60226659 -30.70703125 45.6484375 C-31.07054687 46.26332031 -31.4340625 46.87820312 -31.80859375 47.51171875 C-34.90501273 52.48980772 -37.04630219 55.5256641 -42.70703125 57.6484375 C-47.24767457 59.67723558 -50.51177675 62.05705911 -54.09375 65.44140625 C-55.70703125 66.6484375 -55.70703125 66.6484375 -58.70703125 66.6484375 C-61.58987948 67.74193166 -63.2422946 69.12552005 -65.58203125 71.2109375 C-68.95507045 73.84190808 -70.468541 74.6484375 -74.70703125 74.6484375 C-78.45703125 73.5859375 -78.45703125 73.5859375 -81.70703125 71.6484375 C-83.14453125 68.4609375 -83.14453125 68.4609375 -83.70703125 65.6484375 C-82.22203125 65.1534375 -82.22203125 65.1534375 -80.70703125 64.6484375 C-80.70703125 63.6584375 -80.70703125 62.6684375 -80.70703125 61.6484375 C-81.69703125 61.6484375 -82.68703125 61.6484375 -83.70703125 61.6484375 C-83.70703125 60.9884375 -83.70703125 60.3284375 -83.70703125 59.6484375 C-85.02703125 59.6484375 -86.34703125 59.6484375 -87.70703125 59.6484375 C-88.03703125 58.6584375 -88.36703125 57.6684375 -88.70703125 56.6484375 C-89.36703125 56.3184375 -90.02703125 55.9884375 -90.70703125 55.6484375 C-90.70703125 54.9884375 -90.70703125 54.3284375 -90.70703125 53.6484375 C-92.37765625 53.4628125 -92.37765625 53.4628125 -94.08203125 53.2734375 C-97.70703125 52.6484375 -97.70703125 52.6484375 -99.70703125 50.6484375 C-99.83203125 47.0234375 -99.83203125 47.0234375 -99.70703125 43.6484375 C-101.19203125 44.1434375 -101.19203125 44.1434375 -102.70703125 44.6484375 C-102.70703125 43.9884375 -102.70703125 43.3284375 -102.70703125 42.6484375 C-103.36703125 42.3184375 -104.02703125 41.9884375 -104.70703125 41.6484375 C-98.40869084 40.28466462 -92.18301354 40.68143753 -85.78710938 40.95117188 C-80.77763524 41.23174684 -80.77763524 41.23174684 -76.65625 38.82421875 C-74.83330628 34.64570167 -74.42505302 30.84656195 -74.171875 26.35546875 C-74.10740929 25.29642586 -74.10740929 25.29642586 -74.04164124 24.21598816 C-73.90546618 21.96451389 -73.77492859 19.71275306 -73.64453125 17.4609375 C-73.55310589 15.93292043 -73.46131338 14.40492529 -73.36914062 12.87695312 C-73.14417885 9.13435546 -72.92427191 5.39149095 -72.70703125 1.6484375 C-72.08183594 1.53371094 -71.45664063 1.41898438 -70.8125 1.30078125 C-68.44417003 0.80425292 -68.44417003 0.80425292 -67.01953125 -1.7890625 C-66.24225045 -3.30661073 -65.46954263 -4.82653973 -64.70703125 -6.3515625 C-46.9156816 -12.28201238 -16.79612896 -7.57316314 0 0 Z " fill="#C0057F" transform="translate(211.70703125,160.3515625)"/>
<path d="M0 0 C1.67004829 0.31595508 3.33637583 0.65179959 5 1 C6.32 1 7.64 1 9 1 C9.66 1 10.32 1 11 1 C11.33 3.31 11.66 5.62 12 8 C14.64 8.99 17.28 9.98 20 11 C20 11.66 20 12.32 20 13 C21.65 13 23.3 13 25 13 C24.34 14.32 23.68 15.64 23 17 C24.32 17 25.64 17 27 17 C27 17.66 27 18.32 27 19 C27.99 19 28.98 19 30 19 C30 19.99 30 20.98 30 22 C30.66 22.33 31.32 22.66 32 23 C30.68 23.33 29.36 23.66 28 24 C28.495 26.475 28.495 26.475 29 29 C35.61265863 30.88737711 35.61265863 30.88737711 42.25 29.9375 C45.32268888 27.77265102 48.12858873 25.42474729 51 23 C54 22 54 22 57 22 C58.49345084 20.71923217 58.49345084 20.71923217 59.875 19.0625 C62.5223006 16.25793401 64.12883641 15.50936363 68 15 C73.16930156 11.76918652 77.10637738 7.33035746 80 2 C81.65 2.66 83.3 3.32 85 4 C85.33 3.34 85.66 2.68 86 2 C93.03199908 11.70415873 97.73246536 20.69949596 96 33 C94.49800495 37.33739387 92.04283681 40.70905914 88 43 C87.34 43 86.68 43 86 43 C85.94392578 43.88751953 85.94392578 43.88751953 85.88671875 44.79296875 C85.36631228 51.04805045 84.37816613 54.80958383 79.625 59.1875 C76.06303284 61.64695351 73.35319922 63 69 63 C68.835 63.70125 68.67 64.4025 68.5 65.125 C65.93491411 70.04141463 61.21681751 73.26106083 56 75 C51.38895034 75.4063976 47.28325696 75.49758943 42.9375 73.8125 C40.58270747 71.60962957 40.25689948 70.16842693 40 67 C39.34 67 38.68 67 38 67 C37.773125 67.763125 37.54625 68.52625 37.3125 69.3125 C35.63735151 72.74256596 34.53786617 73.56979878 31 75 C23.75982244 76.30208727 18.01490925 73.97394364 12 70 C8 65.9047619 8 65.9047619 8 63 C7.13375 62.9175 6.2675 62.835 5.375 62.75 C0.17103169 61.5935626 -2.90336427 59.30410736 -6.3125 55.25 C-7.87698119 52.23692512 -8.19018243 51.08247914 -8.375 47.875 C-8.58125 46.59625 -8.7875 45.3175 -9 44 C-10.95890881 42.60699818 -12.9639118 41.27754554 -15 40 C-20.55140682 33.57116718 -19.37161773 24.92784487 -19 17 C-18.34 17 -17.68 17 -17 17 C-16.90976563 16.45730469 -16.81953125 15.91460937 -16.7265625 15.35546875 C-15.14862226 10.23988829 -11.60886335 5.87713284 -8 2 C-5.35673989 0.83696555 -3.93971601 0.88001159 -1 1 C-0.67 0.67 -0.34 0.34 0 0 Z " fill="#B41590" transform="translate(101,203)"/>
<path d="M0 0 C9.84311502 4.87701853 15.37431644 19.7168702 18.90625 29.4296875 C22.4473794 40.98894562 25.14965083 53.13135719 25.09765625 65.24609375 C25.09553383 66.23005882 25.09553383 66.23005882 25.09336853 67.23390198 C25.08783031 69.30181702 25.07529002 71.36961842 25.0625 73.4375 C25.05747699 74.85090988 25.0529155 76.26432148 25.04882812 77.67773438 C25.03788126 81.11852568 25.02066038 84.55925172 25 88 C25.72662842 87.52224121 26.45325684 87.04448242 27.2019043 86.55224609 C28.17039307 85.92398926 29.13888184 85.29573242 30.13671875 84.6484375 C31.09022217 84.02630371 32.04372559 83.40416992 33.02612305 82.76318359 C43.95724238 76.28222605 57.53879611 74.28822948 69.88671875 77.33984375 C74.24673508 78.70184515 77.23715958 80.21759957 80.4375 83.5 C85.13756989 88.08543403 89.62996309 89.00221188 95.9375 89.8125 C102.20023442 90.78790734 105.31227015 92.91346947 110 97 C111.68619296 98.32936594 113.38781776 99.63761116 115.08935547 100.94726562 C133.06350061 114.83270827 133.06350061 114.83270827 135 120 C135.5493863 126.08903148 133.57290618 130.41636396 129.9609375 135.17578125 C125.22575004 139.58082616 121.81620263 141.26547314 115.3828125 141.1796875 C112.24411741 141.05667922 109.11473547 140.8743242 105.98046875 140.66796875 C98.31617211 140.38768552 93.76062919 141.86628329 88 147 C86.19745597 148.92517398 84.62329178 150.91291057 83 153 C81.68855481 154.02853745 80.35852784 155.03450537 79 156 C79.82177734 156.60521484 79.82177734 156.60521484 80.66015625 157.22265625 C91.87117735 165.80865778 106.40345975 177.21037926 111 191 C111.36795288 195.96736392 111.2446074 199.10647112 108 203 C97.39009559 209.32079411 82.97941749 208.22399395 71.3125 205.5 C69.53559444 205.02202789 67.76168023 204.53135059 66 204 C66 202.68 66 201.36 66 200 C67.41702513 200.14230808 68.8336096 200.28900746 70.25 200.4375 C71.43335938 200.55931641 71.43335938 200.55931641 72.640625 200.68359375 C75 201 75 201 76.89453125 201.50708008 C80.48202013 202.34696181 84.08026749 202.22601482 87.75 202.25 C88.5234375 202.270625 89.296875 202.29125 90.09375 202.3125 C95.72138278 202.35026935 99.83608867 201.24005286 105 199 C106.2031921 194.64999779 106.36293418 191.95325327 104.3125 187.875 C92.96657248 169.54696324 75.24107892 157.30459835 55 151 C55 150.67 55 150.34 55 150 C56.41655793 149.9727585 57.83327045 149.95349533 59.25 149.9375 C60.03890625 149.92589844 60.8278125 149.91429687 61.640625 149.90234375 C63.92432678 149.99686783 65.7989215 150.42145565 68 151 C72.94387147 151.62922 76.02548558 151.65592317 80.25 148.8125 C81.61125 147.4203125 81.61125 147.4203125 83 146 C92.91754886 136.08245114 92.91754886 136.08245114 98.46435547 135.93408203 C99.42229004 135.95841309 100.38022461 135.98274414 101.3671875 136.0078125 C102.94306641 136.03294922 102.94306641 136.03294922 104.55078125 136.05859375 C106.75928807 136.10271198 108.96765163 136.15474081 111.17578125 136.21484375 C112.22894531 136.22902344 113.28210938 136.24320313 114.3671875 136.2578125 C115.32737793 136.2798877 116.28756836 136.30196289 117.27685547 136.32470703 C121.93544376 135.7692182 124.52499417 133.46445015 127.8125 130.25 C130.18824464 127.15146185 130.18824464 127.15146185 130.75 123.5625 C128.71819009 113.91140292 114.82750372 106.21833581 107 101 C107 100.34 107 99.68 107 99 C106.4225 98.71125 105.845 98.4225 105.25 98.125 C103.8802014 97.4401007 102.52447177 96.7245856 101.19921875 95.95703125 C98.56688218 94.81152067 96.42350367 94.69344746 93.5625 94.5625 C89.21603101 94.24460666 86.58273943 93.60562868 83 91 C80.80869466 90.30420546 80.80869466 90.30420546 79 90 C78.9175 89.38125 78.835 88.7625 78.75 88.125 C78.2108099 85.8605008 78.2108099 85.8605008 76.19921875 84.96875 C75.47347656 84.6490625 74.74773437 84.329375 74 84 C73.37222656 83.71898438 72.74445313 83.43796875 72.09765625 83.1484375 C60.91634391 78.89910959 49.86011048 80.54527952 39 85 C32.38566147 88.20752715 27.05805463 92.44639513 21.71484375 97.4609375 C20 99 20 99 19 99 C19.24169922 97.24042969 19.24169922 97.24042969 19.48828125 95.4453125 C20.16981826 89.27167283 20.18605224 83.10628941 20.18530273 76.90039062 C20.18747321 74.89969786 20.20593966 72.89904433 20.22460938 70.8984375 C20.24233097 58.89500883 19.39885751 47.09079637 15.625 35.625 C15.40948486 34.96290527 15.19396973 34.30081055 14.97192383 33.61865234 C13.29598566 28.58158533 11.23777225 23.80706631 9 19 C9 18.34 9 17.68 9 17 C8.01 16.67 7.02 16.34 6 16 C6 15.01 6 14.02 6 13 C5.34 13 4.68 13 4 13 C4 12.01 4 11.02 4 10 C3.01 9.67 2.02 9.34 1 9 C0.01 7.515 0.01 7.515 -1 6 C-3.79219782 5.87571136 -3.79219782 5.87571136 -7 7 C-8.78990809 8.98738621 -10.24033391 11.04771505 -11.703125 13.28515625 C-12.13109375 13.85105469 -12.5590625 14.41695312 -13 15 C-13.66 15 -14.32 15 -15 15 C-15.37125 16.2375 -15.37125 16.2375 -15.75 17.5 C-16.68454484 20.11672555 -17.62254449 22.25801205 -18.9140625 24.67578125 C-21.04801786 28.89810292 -22.40587341 33.12780613 -23.625 37.6875 C-23.82867187 38.40099609 -24.03234375 39.11449219 -24.2421875 39.84960938 C-27.3565582 51.21905884 -28.31159119 62.47423107 -28.20581055 74.21313477 C-28.18736692 76.3277581 -28.18530311 78.44194449 -28.18554688 80.55664062 C-28.16798179 87.10726419 -28.04722341 93.52397043 -27 100 C-27.99 99.13375 -28.98 98.2675 -30 97.375 C-31.3292299 96.24515459 -32.66274415 95.12033458 -34 94 C-34.61359375 93.48566406 -35.2271875 92.97132812 -35.859375 92.44140625 C-46.37479411 84.07686832 -58.58912574 79.78929607 -72 81 C-78.71503117 82.30676033 -83.76744009 84.32663646 -88.375 89.5625 C-92.59851455 93.29868595 -96.99414736 94.10320985 -102.4375 94.375 C-111.6370744 95.0508871 -117.31405551 100.92081731 -124.171875 106.6484375 C-127.75777004 109.63007951 -131.42590064 112.50129466 -135.1015625 115.37109375 C-137.76424071 117.6557374 -137.96555888 118.64870059 -138.3125 122.1875 C-137.87323933 127.54648013 -136.20124481 131.06059681 -132.0625 134.70703125 C-126.53835858 137.03928994 -120.53281564 136.07039062 -114.63476562 135.79492188 C-106.86554569 135.58740525 -101.81942942 136.85657579 -95.79296875 141.81640625 C-95.26316406 142.39261719 -94.73335937 142.96882812 -94.1875 143.5625 C-93.64480469 144.14128906 -93.10210937 144.72007812 -92.54296875 145.31640625 C-92.03378906 145.87199219 -91.52460937 146.42757812 -91 147 C-87.94089993 150.21091645 -86.77418965 150.97502614 -82.125 151.125 C-79.94426098 151.10155119 -78.11821278 151.0295532 -76 150.5 C-72.6964843 149.67412108 -69.39419252 149.94343012 -66 150 C-68.65367724 151.76911816 -70.95205377 152.85255638 -73.875 154.0625 C-83.66146328 158.46964903 -92.28355922 164.62626527 -99.51171875 172.56640625 C-101 174 -101 174 -103 174 C-103.38865234 174.86818359 -103.38865234 174.86818359 -103.78515625 175.75390625 C-105.09099178 178.16823238 -106.58099416 179.92129473 -108.4375 181.9375 C-113.31532703 187.31646687 -113.31532703 187.31646687 -115.375 194.125 C-115.21646137 196.93734439 -115.21646137 196.93734439 -113.875 198.75 C-107.66105323 202.89263118 -100.78247432 202.23459619 -93.625 202.125 C-91.94857422 202.11146484 -91.94857422 202.11146484 -90.23828125 202.09765625 C-87.49196538 202.07418346 -84.74609528 202.04134728 -82 202 C-81.67 202.99 -81.34 203.98 -81 205 C-86.60136852 206.58148875 -91.62457185 207.35748454 -97.4375 207.3125 C-98.55064575 207.30621582 -98.55064575 207.30621582 -99.6862793 207.29980469 C-106.42808557 207.16090501 -111.79571994 206.08278204 -117.5 202.375 C-119.85849177 198.64072137 -120.48440496 195.39424504 -120 191 C-114.89518875 177.43895794 -99.42070986 164.29392618 -88 156 C-88.59167969 155.48050781 -89.18335938 154.96101562 -89.79296875 154.42578125 C-97.02983897 148.03891862 -97.02983897 148.03891862 -99.8125 145.125 C-102.62467557 142.39317231 -104.60142304 141.08929355 -108.56201172 140.83642578 C-109.50834473 140.8723584 -110.45467773 140.90829102 -111.4296875 140.9453125 C-112.47253906 140.96980469 -113.51539063 140.99429688 -114.58984375 141.01953125 C-116.77240888 141.08960171 -118.95473248 141.16767206 -121.13671875 141.25390625 C-127.31872759 141.38349213 -131.17883312 141.32826803 -136 137 C-136.60328125 136.45859375 -137.2065625 135.9171875 -137.828125 135.359375 C-141.41346714 131.30124049 -143.82449426 127.53939996 -144 122 C-140.44216622 108.48023162 -122.27985595 97.90495855 -111 91 C-108.52715183 89.76357592 -106.69865132 89.85873732 -103.9375 89.75 C-96.82957145 89.16310682 -91.8631888 86.37435169 -86.4375 81.875 C-79.11797133 76.24459333 -70.07088598 75.46866607 -61.16015625 76.40234375 C-50.59601637 77.97351208 -41.56427506 81.47828869 -33 88 C-33.01571045 87.31711914 -33.0314209 86.63423828 -33.04760742 85.93066406 C-33.61061775 57.56634605 -31.75700074 24.91823155 -11 3 C-7.23443023 -0.206618 -4.99897398 -0.76255535 0 0 Z " fill="#F4F2EB" transform="translate(144,6)"/>
<path d="M0 0 C0.71542969 0.04511719 1.43085938 0.09023437 2.16796875 0.13671875 C15.39569096 1.45301737 27.23391105 15.14169967 35.2890625 24.72265625 C39.43667848 30.05007113 42.48448269 34.09612163 42 41 C39.4444081 44.88449969 36.37162992 45.81507148 32 47 C11.17417517 49.17786403 -5.86203315 42.31624339 -21.89453125 29.421875 C-24.80028908 27.15574939 -27.74091599 25.18261388 -30.875 23.25 C-38.68165694 18.36799442 -43.34828499 15.04702767 -46 6 C-44 4 -44 4 -40.125 3.8125 C-35.26642551 3.91503485 -30.43877323 4.33127691 -25.6015625 4.78125 C-22.93688205 5.0418942 -22.93688205 5.0418942 -20 5 C-19.360625 5.185625 -18.72125 5.37125 -18.0625 5.5625 C-15.70335078 6.06292559 -14.2714844 5.73011998 -12 5 C-12.99 4.01 -13.98 3.02 -15 2 C-9.34843829 -0.47875513 -6.16722887 -1.38230992 0 0 Z " fill="#E31D91" transform="translate(209,162)"/>
<path d="M0 0 C-1.4235749 3.75647327 -2.88750326 6.2453572 -5.5625 9.25 C-9.21992796 13.66255222 -11.72743325 18.15310695 -14.25 23.25 C-18.30982339 31.32967916 -23.41629246 37.60793186 -29.46386719 44.26757812 C-32.09217569 47.23173533 -34.54976084 50.32578785 -37 53.4375 C-37.66684814 54.27027466 -37.66684814 54.27027466 -38.34716797 55.11987305 C-41.31227403 58.89338689 -43.69935494 62.78747628 -46 67 C-47.485 66.505 -47.485 66.505 -49 66 C-49.309375 65.05125 -49.61875 64.1025 -49.9375 63.125 C-51.14455375 59.5748419 -51.77681816 58.78222996 -55 57 C-58.05916188 56.85273667 -58.05916188 56.85273667 -61.25 57.3125 C-62.32765625 57.43238281 -63.4053125 57.55226562 -64.515625 57.67578125 C-65.33546875 57.78277344 -66.1553125 57.88976562 -67 58 C-67.33 57.34 -67.66 56.68 -68 56 C-68.99 55.34 -69.98 54.68 -71 54 C-69.51113281 53.61521484 -69.51113281 53.61521484 -67.9921875 53.22265625 C-57.66483853 50.37911605 -49.68834579 46.19377779 -41 40 C-40.08347656 39.36449219 -39.16695312 38.72898438 -38.22265625 38.07421875 C-36.58336404 36.93504958 -34.9500797 35.78716422 -33.32421875 34.62890625 C-30.21208356 32.44779637 -27.01936923 30.39802758 -23.8125 28.359375 C-21.72871694 26.95363053 -21.72871694 26.95363053 -20 24 C-19.01 23.67 -18.02 23.34 -17 23 C-16.19787372 21.12612784 -16.19787372 21.12612784 -15.8125 18.9375 C-15.65394531 18.20402344 -15.49539062 17.47054687 -15.33203125 16.71484375 C-15.22246094 16.14894531 -15.11289063 15.58304688 -15 15 C-16.98567708 15.03255208 -18.97135417 15.06510417 -20.95703125 15.09765625 C-23 15 -23 15 -26 14 C-28.33595238 14.31445513 -30.66905466 14.6503582 -33 15 C-34.11375 14.95875 -35.2275 14.9175 -36.375 14.875 C-40.98390035 15.0339276 -44.71676699 16.39793804 -49 18 C-49.99 18.33 -50.98 18.66 -52 19 C-51.67 17.68 -51.34 16.36 -51 15 C-56.65146223 13.82877141 -62.27601207 12.74660712 -68 12 C-68 11.34 -68 10.68 -68 10 C-66.46101439 9.20313394 -64.91866216 8.41276859 -63.375 7.625 C-62.08722656 6.96371094 -62.08722656 6.96371094 -60.7734375 6.2890625 C-54.25235492 3.25813679 -47.89544848 2.23729595 -40.8125 1.375 C-39.19613647 1.17716919 -39.19613647 1.17716919 -37.54711914 0.9753418 C-25.04612779 -0.4138568 -12.55846182 -0.28719363 0 0 Z " fill="#FABD76" transform="translate(130,153)"/>
<path d="M0 0 C21.96236433 -0.59957921 44.79788461 -0.55965338 65 9 C65 9.66 65 10.32 65 11 C64.14728516 10.76603516 64.14728516 10.76603516 63.27734375 10.52734375 C57.29186792 9.01848423 52.40369608 8.5163376 46.5625 11.0625 C46.046875 11.371875 45.53125 11.68125 45 12 C45.99 12.99 46.98 13.98 48 15 C44.57233436 15.85691641 42.37248325 16.01174497 39 15 C38.01 15 37.02 15 36 15 C34.37079612 14.93406731 32.74190557 14.8602136 31.11328125 14.78125 C30.17548828 14.73613281 29.23769531 14.69101563 28.27148438 14.64453125 C27.29501953 14.59683594 26.31855469 14.54914063 25.3125 14.5 C24.32443359 14.45230469 23.33636719 14.40460938 22.31835938 14.35546875 C19.87887453 14.23761924 17.43942385 14.11910445 15 14 C15 17.8318027 16.0329104 20.76309663 18 24 C20.17208311 25.89485671 22.11089998 27.39557581 24.5 28.9375 C25.76737053 29.79622089 27.03429277 30.65560375 28.30078125 31.515625 C28.92807129 31.93392578 29.55536133 32.35222656 30.20166016 32.78320312 C32.75318156 34.50961945 35.21683006 36.34786697 37.6875 38.1875 C45.05632379 43.54861775 52.43486931 48.76428396 61 52 C60.67 53.65 60.34 55.3 60 57 C58.9275 56.979375 57.855 56.95875 56.75 56.9375 C52.98448941 57.55925085 52.98448941 57.55925085 51.75 59.9296875 C51.09394693 61.49293896 50.48251859 63.0758314 49.921875 64.67578125 C48.93930381 67.15302641 47.67642532 68.94214083 46 71 C45.8040625 70.40574219 45.608125 69.81148438 45.40625 69.19921875 C41.99182315 59.73595813 36.30697714 52.43190247 29.5625 45.0625 C21.83263948 36.60215438 15.81544132 28.08615654 10.96655273 17.7409668 C8.50428474 12.62997983 5.54634196 8.69055396 1.46875 4.69921875 C0 3 0 3 0 0 Z " fill="#FC8472" transform="translate(150,153)"/>
<path d="M0 0 C0.99 0.33 1.98 0.66 3 1 C3.06058594 1.75925781 3.12117188 2.51851562 3.18359375 3.30078125 C3.26738281 4.29464844 3.35117188 5.28851563 3.4375 6.3125 C3.51871094 7.29863281 3.59992188 8.28476562 3.68359375 9.30078125 C3.91812559 12.09375599 3.91812559 12.09375599 5 15 C4.91185231 16.96503849 4.75690297 18.92727291 4.56860352 20.88525391 C3.79926216 30.5352507 3.87515666 40.16068725 3.90234375 49.8359375 C3.90421317 51.81132979 3.90563459 53.78672255 3.90663147 55.76211548 C3.91041543 60.91419802 3.9202096 66.06625153 3.93133545 71.21832275 C3.94163909 76.49450284 3.94614811 81.77068771 3.95117188 87.046875 C3.96183634 97.36459596 3.97886207 107.68229555 4 118 C4.76948975 117.05833984 5.53897949 116.11667969 6.33178711 115.14648438 C13.16063719 106.789705 23.15659625 101.09353089 33 97 C34.11375 96.51273437 35.2275 96.02546875 36.375 95.5234375 C50.93986986 89.89125211 72.77838151 89.42418511 88 93 C88 93.33 88 93.66 88 94 C87.1342334 94.01458252 86.2684668 94.02916504 85.37646484 94.04418945 C82.09205207 94.10609759 78.80836276 94.18038993 75.52441406 94.26245117 C74.11663974 94.29523101 72.70874873 94.3234003 71.30078125 94.34643555 C52.41254184 94.66348814 29.76328968 98.23671032 15.78515625 112.21484375 C15.19605469 112.80394531 14.60695313 113.39304687 14 114 C13.34 114 12.68 114 12 114 C11.5978125 114.8971875 11.5978125 114.8971875 11.1875 115.8125 C9.28837651 119.31088537 7.79963639 120.73345454 4 122 C4.66 122.66 5.32 123.32 6 124 C6.25 127.5 6.25 127.5 6 131 C4 133 4 133 1.0625 133.3125 C-2 133 -2 133 -3.7109375 131.7734375 C-5.43969987 129.39507957 -5.0619815 128.18653274 -4.6875 125.3125 C-4.58727159 120.99641423 -5.20169158 119.01631928 -8.1875 115.875 C-17.27763083 107.95314303 -27.65719799 102.84552289 -39 99 C-39.99386719 98.649375 -40.98773438 98.29875 -42.01171875 97.9375 C-59.96512533 92.30505872 -80.75699388 94.10124154 -98.98046875 97.34375 C-102.02763892 97.88309701 -104.8945286 98.14936135 -108 98 C-107.505 97.01 -107.505 97.01 -107 96 C-105.20922852 95.42163086 -105.20922852 95.42163086 -102.87890625 94.96484375 C-102.02490234 94.79533203 -101.17089844 94.62582031 -100.29101562 94.45117188 C-99.39060547 94.28166016 -98.49019531 94.11214844 -97.5625 93.9375 C-96.69689453 93.76412109 -95.83128906 93.59074219 -94.93945312 93.41210938 C-68.46435188 88.26691099 -41.46220817 90.0190067 -17.87109375 103.83203125 C-15.47018074 105.45585486 -13.22785985 107.14762214 -11 109 C-9.84371094 109.95132813 -9.84371094 109.95132813 -8.6640625 110.921875 C-3.23342226 115.53315549 -3.23342226 115.53315549 -2 118 C-1.98969254 116.78716339 -1.97938507 115.57432678 -1.96876526 114.32473755 C-1.87045726 102.8222755 -1.76767635 91.31986069 -1.66066074 79.81747627 C-1.60580006 73.90584085 -1.55244475 67.99420027 -1.50268555 62.08251953 C-1.45449118 56.36363892 -1.40213909 50.64480935 -1.34705925 44.92599106 C-1.32688187 42.75825163 -1.30813279 40.59049835 -1.29092598 38.42273331 C-1.1879471 25.58573983 -0.85613536 12.81013063 0 0 Z " fill="#EA3F93" transform="translate(139,27)"/>
<path d="M0 0 C0.66 0 1.32 0 2 0 C2.06731323 1.46022583 2.06731323 1.46022583 2.13598633 2.94995117 C2.30675401 6.5755566 2.49555205 10.20004035 2.68969727 13.82446289 C2.77108773 15.39062252 2.84764365 16.95704142 2.91918945 18.52368164 C3.02312955 20.78097378 3.14465993 23.03674937 3.26953125 25.29296875 C3.29779495 25.98899704 3.32605865 26.68502533 3.35517883 27.40214539 C3.63769936 32.08758422 4.61852463 35.61852463 8 39 C9.45396273 39.07465791 10.91145727 39.08325908 12.3671875 39.0625 C13.25277344 39.05476563 14.13835937 39.04703125 15.05078125 39.0390625 C16.92578275 39.01312887 18.80078277 38.98708811 20.67578125 38.9609375 C22.00802734 38.94933594 22.00802734 38.94933594 23.3671875 38.9375 C24.18300293 38.92589844 24.99881836 38.91429687 25.83935547 38.90234375 C28 39 28 39 31 40 C30.67 41.98 30.34 43.96 30 46 C29.34 46 28.68 46 28 46 C28 46.66 28 47.32 28 48 C26.55558208 49.25182887 25.10701493 50.50089441 23.60546875 51.68359375 C21.97156769 52.97338876 21.97156769 52.97338876 20.5390625 54.5 C16.38850488 58.54521351 10.6639519 61.8894212 5 63 C-0.7384154 62.9151122 -5.72159584 62.32898846 -11 60 C-11 59.34 -11 58.68 -11 58 C-12.32 58 -13.64 58 -15 58 C-15.33 57.01 -15.66 56.02 -16 55 C-16.66 54.67 -17.32 54.34 -18 54 C-18 53.34 -18 52.68 -18 52 C-19.670625 51.814375 -19.670625 51.814375 -21.375 51.625 C-25 51 -25 51 -27 49 C-27.125 45.375 -27.125 45.375 -27 42 C-28.485 42.495 -28.485 42.495 -30 43 C-30 42.34 -30 41.68 -30 41 C-30.66 40.67 -31.32 40.34 -32 40 C-25.70165959 38.63622712 -19.47598229 39.03300003 -13.08007812 39.30273438 C-8.07060399 39.58330934 -8.07060399 39.58330934 -3.94921875 37.17578125 C-2.12627503 32.99726417 -1.71802177 29.19812445 -1.46484375 24.70703125 C-1.40037804 23.64798836 -1.40037804 23.64798836 -1.33460999 22.56755066 C-1.19843493 20.31607639 -1.06789734 18.06431556 -0.9375 15.8125 C-0.84607464 14.28448293 -0.75428213 12.75648779 -0.66210938 11.22851562 C-0.4371476 7.48591796 -0.21724066 3.74305345 0 0 Z " fill="#FBA739" transform="translate(139,162)"/>
<path d="M0 0 C2 2 2 2 3 4.0625 C3.84589942 6.16865601 3.84589942 6.16865601 6 7 C5.9304381 10.9657967 5.84215571 14.93072114 5.73754883 18.89575195 C5.68849065 20.89708611 5.65366863 22.89875306 5.61914062 24.90039062 C5.41661593 32.20969088 4.77736479 38.21667741 2 45 C1.34 45 0.68 45 0 45 C0 45.66 0 46.32 0 47 C-0.57967529 46.99476318 -1.15935059 46.98952637 -1.7565918 46.98413086 C-4.4002167 46.96325666 -7.04382421 46.95030673 -9.6875 46.9375 C-10.59951172 46.92912109 -11.51152344 46.92074219 -12.45117188 46.91210938 C-13.78051758 46.90727539 -13.78051758 46.90727539 -15.13671875 46.90234375 C-15.94842529 46.89710693 -16.76013184 46.89187012 -17.59643555 46.88647461 C-20.14864673 47.0070209 -22.51026137 47.440051 -25 48 C-25.33 48.99 -25.66 49.98 -26 51 C-26.680625 50.79375 -27.36125 50.5875 -28.0625 50.375 C-31.78833331 49.89936171 -34.46992554 50.82330851 -38 52 C-36.56199539 47.43805433 -34.20777902 44.87919656 -30.875 41.5 C-23.6639548 33.93425508 -18.78824087 25.42943787 -13.9375 16.1875 C-11.5848316 11.76655168 -8.84599656 8.19850849 -5.41796875 4.55859375 C-3.9062601 3.03844162 -3.9062601 3.03844162 -3 1 C-2.01 0.67 -1.02 0.34 0 0 Z " fill="#BE057F" transform="translate(132,154)"/>
<path d="M0 0 C-0.35359775 5.59021203 -2.70885296 8.5383606 -6.375 12.5 C-7.46850273 13.72837468 -8.55958703 14.95890585 -9.6484375 16.19140625 C-10.20499023 16.81805176 -10.76154297 17.44469727 -11.33496094 18.09033203 C-13.9859703 21.13082986 -16.50322376 24.26993523 -19 27.4375 C-19.4439209 27.99179688 -19.8878418 28.54609375 -20.34521484 29.1171875 C-23.31081593 32.8917946 -25.69878267 36.78642845 -28 41 C-29.485 40.505 -29.485 40.505 -31 40 C-31.309375 39.05125 -31.61875 38.1025 -31.9375 37.125 C-33.14455375 33.5748419 -33.77681816 32.78222996 -37 31 C-40.05916188 30.85273667 -40.05916188 30.85273667 -43.25 31.3125 C-44.86648437 31.49232422 -44.86648437 31.49232422 -46.515625 31.67578125 C-47.33546875 31.78277344 -48.1553125 31.88976562 -49 32 C-49.33 31.34 -49.66 30.68 -50 30 C-50.99 29.34 -51.98 28.68 -53 28 C-51.51113281 27.61521484 -51.51113281 27.61521484 -49.9921875 27.22265625 C-39.66620708 24.37949287 -31.68569278 20.19643519 -23 14 C-22.10667969 13.37609375 -21.21335937 12.7521875 -20.29296875 12.109375 C-18.67769615 10.97995605 -17.06554207 9.84605964 -15.45703125 8.70703125 C-2.92448513 0 -2.92448513 0 0 0 Z " fill="#C4C83D" transform="translate(112,179)"/>
<path d="M0 0 C1.010625 0.78375 2.02125 1.5675 3.0625 2.375 C7.64861254 5.82473067 12.42233655 8.9572076 17.21801758 12.10375977 C21.37240957 14.85121003 25.32522645 17.74627066 29.25 20.8125 C34.4942674 24.83120491 39.86191788 27.59551507 46 30 C45.67 31.65 45.34 33.3 45 35 C43.9275 34.979375 42.855 34.95875 41.75 34.9375 C37.98448941 35.55925085 37.98448941 35.55925085 36.75 37.9296875 C36.09394693 39.49293896 35.48251859 41.0758314 34.921875 42.67578125 C33.93930381 45.15302641 32.67642532 46.94214083 31 49 C30.8040625 48.40574219 30.608125 47.81148437 30.40625 47.19921875 C26.59558134 36.63775345 19.81624754 28.79136906 12.31640625 20.61328125 C9.76861736 17.73896292 7.34744435 14.78822998 5 11.75 C4.2575 10.79609375 3.515 9.8421875 2.75 8.859375 C0.88331755 5.80934922 0.33444887 3.53261623 0 0 Z " fill="#C3C73F" transform="translate(165,175)"/>
<path d="M0 0 C1.64767247 0.28109113 3.29313145 0.57518526 4.9375 0.875 C6.31228516 1.11863281 6.31228516 1.11863281 7.71484375 1.3671875 C8.46894531 1.57601562 9.22304687 1.78484375 10 2 C10.495 2.99 10.495 2.99 11 4 C5.3030303 13.63636364 5.3030303 13.63636364 -1 16 C-5.54064332 18.02879808 -8.8047455 20.40862161 -12.38671875 23.79296875 C-14 25 -14 25 -17 25 C-19.88284823 26.09349416 -21.53526335 27.47708255 -23.875 29.5625 C-27.2480392 32.19347058 -28.76150975 33 -33 33 C-36.75 31.9375 -36.75 31.9375 -40 30 C-41.4375 26.8125 -41.4375 26.8125 -42 24 C-41.01 23.67 -40.02 23.34 -39 23 C-39 22.34 -39 21.68 -39 21 C-38.16597656 21.11859375 -37.33195313 21.2371875 -36.47265625 21.359375 C-28.77080441 22.24160316 -23.67462255 22.01313423 -17 18 C-16.030625 17.4225 -15.06125 16.845 -14.0625 16.25 C-13.381875 15.8375 -12.70125 15.425 -12 15 C-11.34 15 -10.68 15 -10 15 C-9.731875 14.401875 -9.46375 13.80375 -9.1875 13.1875 C-8.00082594 11.00152146 -6.90400887 9.58667406 -5 8 C-4.34 8 -3.68 8 -3 8 C-3 7.34 -3 6.68 -3 6 C-2.34 6 -1.68 6 -1 6 C-0.67 4.02 -0.34 2.04 0 0 Z " fill="#E14B83" transform="translate(170,202)"/>
<path d="M0 0 C0.76183594 0.07992187 1.52367187 0.15984375 2.30859375 0.2421875 C9.90991511 1.21458742 14.44020323 4.91337742 20 10 C19.37996094 10.30550781 18.75992188 10.61101562 18.12109375 10.92578125 C15.99997523 11.96404506 15.99997523 11.96404506 14.0625 13.1875 C11.38201174 14.24344992 9.72832067 13.75786685 7 13 C8.96318174 16.53372712 11.04070881 19.24479785 14 22 C11 23 11 23 9.11816406 22.16723633 C8.07740723 21.50630981 8.07740723 21.50630981 7.015625 20.83203125 C6.24476563 20.35056641 5.47390625 19.86910156 4.6796875 19.37304688 C3.87789062 18.85806641 3.07609375 18.34308594 2.25 17.8125 C0.67243708 16.81811813 -0.90568056 15.82461571 -2.484375 14.83203125 C-3.24298828 14.3520166 -4.00160156 13.87200195 -4.78320312 13.37744141 C-7.80909133 11.49725845 -10.89218022 9.74087766 -14 8 C-13.34 7.01 -12.68 6.02 -12 5 C-12.99 4.01 -13.98 3.02 -15 2 C-9.34843829 -0.47875513 -6.16722887 -1.38230992 0 0 Z " fill="#F33E96" transform="translate(209,162)"/>
<path d="M0 0 C1.43739513 -0.02712066 2.87493863 -0.04645067 4.3125 -0.0625 C5.51326172 -0.07990234 5.51326172 -0.07990234 6.73828125 -0.09765625 C9 0 9 0 12 1 C11.67 2.98 11.34 4.96 11 7 C10.34 7 9.68 7 9 7 C9 7.66 9 8.32 9 9 C7.55558208 10.25182887 6.10701493 11.50089441 4.60546875 12.68359375 C2.97156769 13.97338876 2.97156769 13.97338876 1.5390625 15.5 C-2.61149512 19.54521351 -8.3360481 22.8894212 -14 24 C-19.7384154 23.9151122 -24.72159584 23.32898846 -30 21 C-30 20.34 -30 19.68 -30 19 C-31.32 19 -32.64 19 -34 19 C-34.33 18.01 -34.66 17.02 -35 16 C-35.66 15.67 -36.32 15.34 -37 15 C-37 14.34 -37 13.68 -37 13 C-38.11375 12.87625 -39.2275 12.7525 -40.375 12.625 C-44 12 -44 12 -46 10 C-46.125 6.375 -46.125 6.375 -46 3 C-46.99 3.33 -47.98 3.66 -49 4 C-49 3.34 -49 2.68 -49 2 C-49.66 1.67 -50.32 1.34 -51 1 C-48.125 0.875 -48.125 0.875 -45 1 C-43 3 -43 3 -42.875 5.625 C-42.91625 6.40875 -42.9575 7.1925 -43 8 C-41.35 8.33 -39.7 8.66 -38 9 C-38 9.66 -38 10.32 -38 11 C-37.13375 11.103125 -36.2675 11.20625 -35.375 11.3125 C-31.63476161 12.07440041 -27.7748877 13.2251123 -25 16 C-15.32034737 17.18556986 -8.13581546 15.30765104 0 10 C2.65284275 7.65256353 4.25246184 5.0789958 6 2 C4.02 1.67 2.04 1.34 0 1 C0 0.67 0 0.34 0 0 Z " fill="#F58952" transform="translate(158,201)"/>
<path d="M0 0 C0.77085937 0.61101562 1.54171875 1.22203125 2.3359375 1.8515625 C8.3312401 6.79505763 8.3312401 6.79505763 9 11 C5.63571136 10.42843268 4.26540742 9.50268928 2.0625 6.9375 C-6.13443632 -1.5740309 -16.98124346 -6.26433747 -28 -10 C-28.99386719 -10.350625 -29.98773438 -10.70125 -31.01171875 -11.0625 C-48.96512533 -16.69494128 -69.75699388 -14.89875846 -87.98046875 -11.65625 C-91.02763892 -11.11690299 -93.8945286 -10.85063865 -97 -11 C-96.67 -11.66 -96.34 -12.32 -96 -13 C-94.20922852 -13.57836914 -94.20922852 -13.57836914 -91.87890625 -14.03515625 C-90.59790039 -14.28942383 -90.59790039 -14.28942383 -89.29101562 -14.54882812 C-87.94040039 -14.8030957 -87.94040039 -14.8030957 -86.5625 -15.0625 C-85.69689453 -15.23587891 -84.83128906 -15.40925781 -83.93945312 -15.58789062 C-55.42408544 -21.12959648 -23.23691784 -19.23355371 0 0 Z " fill="#EF66BD" transform="translate(128,136)"/>
<path d="M0 0 C0.66 0 1.32 0 2 0 C2.04487549 0.97348389 2.08975098 1.94696777 2.13598633 2.94995117 C2.30675401 6.5755566 2.49555205 10.20004035 2.68969727 13.82446289 C2.77108773 15.39062252 2.84764365 16.95704142 2.91918945 18.52368164 C3.02312955 20.78097378 3.14465993 23.03674937 3.26953125 25.29296875 C3.29779495 25.98899704 3.32605865 26.68502533 3.35517883 27.40214539 C3.68480638 32.8688267 5.15531591 36.15531591 9 40 C8.87358041 45.56246192 6.62242625 48.09892558 3 52 C-0.40502926 51.71624756 -1.76257746 51.23082747 -4.25 48.8125 C-6.22023799 45.64604609 -7 43.73443628 -7 40 C-5.125 37.3125 -5.125 37.3125 -3 35 C-1.85063364 31.55190093 -1.66751764 28.30223807 -1.46484375 24.70703125 C-1.42186661 24.00100266 -1.37888947 23.29497406 -1.33460999 22.56755066 C-1.19843493 20.31607639 -1.06789734 18.06431556 -0.9375 15.8125 C-0.84607464 14.28448293 -0.75428213 12.75648779 -0.66210938 11.22851562 C-0.4371476 7.48591796 -0.21724066 3.74305345 0 0 Z " fill="#FBF0E9" transform="translate(139,162)"/>
<path d="M0 0 C1.32 0 2.64 0 4 0 C5.23536515 1.45709736 6.47024414 2.92223371 7.55859375 4.4921875 C10.22130772 7.27757393 13.12861461 7.94120207 16.89453125 8.1953125 C17.85746094 8.17210937 18.82039063 8.14890625 19.8125 8.125 C20.78832031 8.10695313 21.76414063 8.08890625 22.76953125 8.0703125 C23.50558594 8.04710937 24.24164063 8.02390625 25 8 C25.309375 6.865625 25.61875 5.73125 25.9375 4.5625 C27 1 27 1 28 0 C30.75943884 -0.29046725 32.37756358 -0.43801081 34.6875 1.1875 C36.24824919 3.34282031 37.12052567 5.49688074 38 8 C44.66210686 8.54384546 48.49270463 7.85510676 54 4 C54.556875 3.4225 55.11375 2.845 55.6875 2.25 C57 1 57 1 61 1 C59.69114898 6.56261684 55.61114029 9.1146132 51 12 C45.71849343 13.76050219 40.14051503 13.82999562 34.9375 11.8125 C32.58270747 9.60962957 32.25689948 8.16842693 32 5 C31.34 5 30.68 5 30 5 C29.773125 5.763125 29.54625 6.52625 29.3125 7.3125 C27.63735151 10.74256596 26.53786617 11.56979878 23 13 C15.75442393 14.30305815 10.02240752 11.96808539 4 8 C1.375 5.375 1.375 5.375 0 3 C0 2.01 0 1.02 0 0 Z " fill="#F0F0EC" transform="translate(109,265)"/>
<path d="M0 0 C16.55344312 -0.45191402 32.5859418 0.87720045 49 3 C49 3.33 49 3.66 49 4 C47.01432292 4.1953125 45.02864583 4.390625 43.04296875 4.5859375 C40.70011858 4.92665391 40.70011858 4.92665391 38 7 C37.27034634 9.56282742 37.27034634 9.56282742 37 12 C32.37217052 11.37021892 28.26751039 10.13391826 23.875 8.5625 C18.11922608 6.55394126 12.55844456 5.22104904 6.48828125 4.45703125 C3.99648821 3.99935498 2.19102442 3.24688275 0 2 C0 1.34 0 0.68 0 0 Z " fill="#F7C770" transform="translate(150,153)"/>
<path d="M0 0 C0.70929153 0.00045822 1.41858307 0.00091644 2.14936829 0.00138855 C3.63418268 0.00438437 5.1189947 0.01218935 6.60375977 0.0246582 C8.86811514 0.04300792 11.13206205 0.04516676 13.39648438 0.04492188 C25.41419852 0.08561045 25.41419852 0.08561045 30.17578125 1.23046875 C30.17578125 1.56046875 30.17578125 1.89046875 30.17578125 2.23046875 C29.31001465 2.24505127 28.44424805 2.25963379 27.55224609 2.2746582 C24.26783332 2.33656634 20.98414401 2.41085868 17.70019531 2.49291992 C16.29242099 2.52569976 14.88452998 2.55386905 13.4765625 2.5769043 C-5.41167691 2.89395689 -28.06092907 6.46717907 -42.0390625 20.4453125 C-42.62816406 21.03441406 -43.21726563 21.62351563 -43.82421875 22.23046875 C-44.48421875 22.23046875 -45.14421875 22.23046875 -45.82421875 22.23046875 C-46.11296875 22.84921875 -46.40171875 23.46796875 -46.69921875 24.10546875 C-47.82421875 26.23046875 -47.82421875 26.23046875 -49.82421875 28.23046875 C-51.14421875 28.23046875 -52.46421875 28.23046875 -53.82421875 28.23046875 C-52.25274581 24.37321698 -49.84817771 22.05283045 -46.82421875 19.23046875 C-46.31890625 18.75480469 -45.81359375 18.27914062 -45.29296875 17.7890625 C-33.1610262 6.83025591 -16.39121763 -0.05145904 0 0 Z " fill="#EE6EBF" transform="translate(196.82421875,118.76953125)"/>
<path d="M0 0 C0.87398437 0.01804688 1.74796875 0.03609375 2.6484375 0.0546875 C3.62683594 0.08949219 3.62683594 0.08949219 4.625 0.125 C5.481601 3.00721041 5.92563531 4.50564605 4.5859375 7.265625 C4.06257813 7.96171875 3.53921875 8.6578125 3 9.375 C-0.17217281 13.78491313 -2.81728297 18.33776857 -5.375 23.125 C-5.705 22.465 -6.035 21.805 -6.375 21.125 C-7.365 21.455 -8.355 21.785 -9.375 22.125 C-9.045 21.135 -8.715 20.145 -8.375 19.125 C-7.385 18.795 -6.395 18.465 -5.375 18.125 C-4.57287372 16.25112784 -4.57287372 16.25112784 -4.1875 14.0625 C-4.02894531 13.32902344 -3.87039062 12.59554687 -3.70703125 11.83984375 C-3.54267578 10.99099609 -3.54267578 10.99099609 -3.375 10.125 C-6.35351562 10.17382812 -6.35351562 10.17382812 -9.33203125 10.22265625 C-11.375 10.125 -11.375 10.125 -14.375 9.125 C-15.4475 9.29 -16.52 9.455 -17.625 9.625 C-21.4867402 10.13989869 -24.56237899 9.82527733 -28.375 9.125 C-25.69863112 6.44863112 -22.64882398 5.74099032 -19.125 4.625 C-18.46886719 4.41230469 -17.81273438 4.19960937 -17.13671875 3.98046875 C-15.21728133 3.35846418 -13.29615852 2.74166817 -11.375 2.125 C-10.33601563 1.74601563 -9.29703125 1.36703125 -8.2265625 0.9765625 C-5.31548746 0.10722776 -3.02386385 -0.08172605 0 0 Z " fill="#FC9B62" transform="translate(118.375,157.875)"/>
<path d="M0 0 C0.99 0.33 1.98 0.66 3 1 C3.66 0.67 4.32 0.34 5 0 C6.41973273 -0.08934406 7.84357791 -0.11758978 9.26611328 -0.11352539 C10.58725632 -0.11341209 10.58725632 -0.11341209 11.93508911 -0.11329651 C12.88721283 -0.10813522 13.83933655 -0.10297394 14.8203125 -0.09765625 C16.28100662 -0.09553383 16.28100662 -0.09553383 17.77120972 -0.09336853 C20.88917073 -0.08775973 24.0070606 -0.07520573 27.125 -0.0625 C29.23567605 -0.05748613 31.34635322 -0.05292303 33.45703125 -0.04882812 C38.63804521 -0.03778745 43.81901752 -0.02104073 49 0 C49 0.66 49 1.32 49 2 C49.66 2 50.32 2 51 2 C51.33 1.34 51.66 0.68 52 0 C52.495 1.485 52.495 1.485 53 3 C51.88310791 3.029729 51.88310791 3.029729 50.74365234 3.06005859 C33.00535484 3.45936855 33.00535484 3.45936855 15.4140625 5.52734375 C10.09522634 6.26370436 4.75497015 6.45147047 -0.60742188 6.65820312 C-1.37892578 6.68978516 -2.15042969 6.72136719 -2.9453125 6.75390625 C-3.63125488 6.77783447 -4.31719727 6.8017627 -5.02392578 6.82641602 C-7.10252113 7.00900575 -8.98623282 7.46553176 -11 8 C-13.77024408 8.27649269 -16.18486265 8.17873888 -19 8 C-20.74609375 6.484375 -20.74609375 6.484375 -22 5 C-21.443125 5.10699219 -20.88625 5.21398437 -20.3125 5.32421875 C-13.07181255 6.46169161 -8.35510516 5.08762099 -2.1875 1.25 C-1.465625 0.8375 -0.74375 0.425 0 0 Z " fill="#9E0D77" transform="translate(77,150)"/>
<path d="M0 0 C0.99 0.33 1.98 0.66 3 1 C3.06058594 1.75925781 3.12117187 2.51851562 3.18359375 3.30078125 C3.26738281 4.29464844 3.35117188 5.28851563 3.4375 6.3125 C3.55931641 7.79169922 3.55931641 7.79169922 3.68359375 9.30078125 C3.91812559 12.09375599 3.91812559 12.09375599 5 15 C4.92365447 16.92243559 4.77748316 18.84228397 4.59765625 20.7578125 C3.76708882 31.1165748 3.6432171 41.48838547 3.4375 51.875 C3.3942005 53.93099635 3.35058305 55.98698604 3.30664062 58.04296875 C3.20076528 63.02857659 3.09917915 68.01425464 3 73 C2.01 72.34 1.02 71.68 0 71 C-0.36076355 68.0640564 -0.36076355 68.0640564 -0.34057617 64.25537109 C-0.34101425 63.56257553 -0.34145233 62.86977997 -0.34190369 62.1559906 C-0.33981032 59.86152149 -0.31645468 57.56777926 -0.29296875 55.2734375 C-0.28737471 53.68446248 -0.28310371 52.09548229 -0.28010559 50.50650024 C-0.26864158 46.32077797 -0.23916131 42.13536714 -0.20599365 37.94976807 C-0.17532611 33.68009657 -0.16160737 29.41037484 -0.14648438 25.140625 C-0.11429284 16.76027361 -0.06307803 8.38017553 0 0 Z " fill="#F88AB0" transform="translate(139,27)"/>
<path d="M0 0 C0.84884766 0.23396484 0.84884766 0.23396484 1.71484375 0.47265625 C2.44832031 0.66730469 3.18179688 0.86195313 3.9375 1.0625 C4.66839844 1.25972656 5.39929688 1.45695313 6.15234375 1.66015625 C7.06693359 1.82837891 7.06693359 1.82837891 8 2 C8.33 1.67 8.66 1.34 9 1 C10.41570123 0.91348389 11.835595 0.89295096 13.25390625 0.90234375 C14.53491211 0.90717773 14.53491211 0.90717773 15.84179688 0.91210938 C16.73962891 0.92048828 17.63746094 0.92886719 18.5625 0.9375 C19.46419922 0.94201172 20.36589844 0.94652344 21.29492188 0.95117188 C23.53001314 0.96299775 25.76497437 0.9794778 28 1 C28.495 2.485 28.495 2.485 29 4 C31.97 4 34.94 4 38 4 C38 4.66 38 5.32 38 6 C38.99 6 39.98 6 41 6 C41.33 5.34 41.66 4.68 42 4 C42 4.99 42 5.98 42 7 C45.96 7 49.92 7 54 7 C54 6.34 54 5.68 54 5 C54.66 5 55.32 5 56 5 C56 4.34 56 3.68 56 3 C56.99 3.33 57.98 3.66 59 4 C54.3365651 8.78301016 54.3365651 8.78301016 50.73828125 9.3671875 C47.80310064 9.37689058 45.07178879 9.30114419 42.234375 8.50390625 C38.81886452 7.73362504 35.36170076 7.70819733 31.875 7.5625 C25.64810577 7.2656518 19.49859373 6.76555712 13.3125 6 C2.57955909 4.688599 -8.20002265 4.35528142 -19 4 C-18.67 3.34 -18.34 2.68 -18 2 C-15.9375 1.375 -15.9375 1.375 -14 1 C-14 1.33 -14 1.66 -14 2 C-9.71 2 -5.42 2 -1 2 C-0.67 1.34 -0.34 0.68 0 0 Z " fill="#9F1479" transform="translate(168,149)"/>
<path d="M0 0 C0.84304687 0.13792969 1.68609375 0.27585938 2.5546875 0.41796875 C10.24085467 1.72127536 10.24085467 1.72127536 13 5 C10.81274749 5.16988369 8.62518299 5.33575269 6.4375 5.5 C5.21933594 5.5928125 4.00117188 5.685625 2.74609375 5.78125 C-0.84634216 5.99102728 -4.40247543 6.03704015 -8 6 C-6.989375 6.61488281 -5.97875 7.22976562 -4.9375 7.86328125 C-3.62464964 8.67912397 -2.31216853 9.4955611 -1 10.3125 C-0.33226562 10.71662109 0.33546875 11.12074219 1.0234375 11.53710938 C2.73522569 12.6113438 4.37433438 13.79941276 6 15 C6 15.99 6 16.98 6 18 C3.04703576 17.37666027 0.72453208 16.43098208 -1.890625 14.93359375 C-2.59960938 14.53076172 -3.30859375 14.12792969 -4.0390625 13.71289062 C-4.76867187 13.29201172 -5.49828125 12.87113281 -6.25 12.4375 C-6.99507812 12.01275391 -7.74015625 11.58800781 -8.5078125 11.15039062 C-10.34098961 10.10453958 -12.17082677 9.05283808 -14 8 C-13.34 7.01 -12.68 6.02 -12 5 C-12.99 4.01 -13.98 3.02 -15 2 C-9.34843829 -0.47875513 -6.16722887 -1.38230992 0 0 Z " fill="#F96E85" transform="translate(209,162)"/>
<path d="M0 0 C2 2 2 2 2 3 C2.66 3.33 3.32 3.66 4 4 C3.34515625 4.3403125 2.6903125 4.680625 2.015625 5.03125 C-4.46582439 8.47337566 -10.53846948 12.27508804 -16.56640625 16.4609375 C-19 18 -19 18 -21 18 C-20.87890625 16.296875 -20.87890625 16.296875 -20 14 C-18.00484099 12.27105302 -16.08570336 10.75742499 -13.9375 9.25 C-13.36966797 8.83878906 -12.80183594 8.42757812 -12.21679688 8.00390625 C-10.81805343 6.99304964 -9.40990625 5.99522794 -8 5 C-8.62628423 2.95310804 -8.62628423 2.95310804 -10 1 C-12.41679707 0.29823412 -12.41679707 0.29823412 -15.125 0.25 C-16.03507812 0.19328125 -16.94515625 0.1365625 -17.8828125 0.078125 C-18.58148438 0.05234375 -19.28015625 0.0265625 -20 0 C-20 0.99 -20 1.98 -20 3 C-19.34 3.33 -18.68 3.66 -18 4 C-18.7425 4.12375 -19.485 4.2475 -20.25 4.375 C-22.97537272 4.86889456 -22.97537272 4.86889456 -25.125 6.125 C-27 7 -27 7 -30 6 C-28.37680325 4.68527053 -26.751385 3.37328338 -25.125 2.0625 C-24.22007813 1.33160156 -23.31515625 0.60070312 -22.3828125 -0.15234375 C-16.32690176 -4.8481565 -7.03432726 -2.00046853 0 0 Z " fill="#F65B8A" transform="translate(79,167)"/>
<path d="M0 0 C2.0625 1.75 2.0625 1.75 3 4 C3 5.32 3 6.64 3 8 C0.03873672 10.13869014 -2.15292092 11.06326732 -5.82421875 10.7890625 C-8.8991194 10.25664557 -11.94672427 9.6440822 -15 9 C-16.41447703 8.77728502 -17.83086019 8.56576014 -19.25 8.375 C-20.1575 8.25125 -21.065 8.1275 -22 8 C-22 7.34 -22 6.68 -22 6 C-20.3970947 5.18501438 -18.79262722 4.37310073 -17.1875 3.5625 C-16.29417969 3.11003906 -15.40085937 2.65757812 -14.48046875 2.19140625 C-9.65396371 -0.12683633 -5.29283004 -0.71950948 0 0 Z " fill="#F9797D" transform="translate(84,157)"/>
<path d="M0 0 C2.13363651 3.20045476 2.24672228 3.98629436 2.22705078 7.6550293 C2.22689972 8.59577805 2.22674866 9.53652679 2.22659302 10.50578308 C2.21627045 11.51836685 2.20594788 12.53095062 2.1953125 13.57421875 C2.1924826 14.61318802 2.18965271 15.65215729 2.18673706 16.72261047 C2.17553282 20.04435697 2.15042764 23.36583485 2.125 26.6875 C2.11497052 28.93814715 2.10584462 31.18879852 2.09765625 33.43945312 C2.0755927 38.95972722 2.04211271 44.47984442 2 50 C1.01 50 0.02 50 -1 50 C-1.02526838 43.03996553 -1.04283222 36.0799428 -1.05493164 29.11987305 C-1.05997341 26.75007688 -1.06680665 24.38028385 -1.07543945 22.01049805 C-1.0875119 18.61245961 -1.09322971 15.21446215 -1.09765625 11.81640625 C-1.10281754 10.74975235 -1.10797882 9.68309845 -1.11329651 8.5841217 C-1.11337204 7.60318039 -1.11344757 6.62223907 -1.11352539 5.61157227 C-1.115746 4.74331314 -1.11796661 3.87505402 -1.12025452 2.98048401 C-1 1 -1 1 0 0 Z " fill="#F9A5D7" transform="translate(140,97)"/>
<path d="M0 0 C20.72340426 4.19148936 20.72340426 4.19148936 29 7 C25.20836973 9.52775351 22.19125969 9.22443035 17.8125 9.125 C17.06291016 9.11597656 16.31332031 9.10695312 15.54101562 9.09765625 C13.69387346 9.07412578 11.84689588 9.03825561 10 9 C10.66708984 9.79664063 10.66708984 9.79664063 11.34765625 10.609375 C11.91355469 11.31578125 12.47945312 12.0221875 13.0625 12.75 C13.63097656 13.44609375 14.19945312 14.1421875 14.78515625 14.859375 C16 17 16 17 15.68359375 19.265625 C15.45800781 19.83796875 15.23242188 20.4103125 15 21 C13.03662377 18.51994581 11.36694119 15.9609113 9.75 13.25 C7.3326991 9.30987346 4.47583317 5.96620628 1.35546875 2.56640625 C0 1 0 1 0 0 Z " fill="#FD966B" transform="translate(150,155)"/>
<path d="M0 0 C4.95 0 9.9 0 15 0 C16.02539062 2.9296875 16.02539062 2.9296875 17.05078125 5.859375 C18.1036394 8.44957692 18.1036394 8.44957692 21 12 C17.7 11.67 14.4 11.34 11 11 C11 10.34 11 9.68 11 9 C8.69 8.34 6.38 7.68 4 7 C3.67 5.68 3.34 4.36 3 3 C2.34 3 1.68 3 1 3 C0.67 2.01 0.34 1.02 0 0 Z " fill="#FDBC29" transform="translate(117,202)"/>
<path d="M0 0 C-0.33 0.99 -0.66 1.98 -1 3 C-3.87890625 4.0625 -3.87890625 4.0625 -7.5625 5 C-12.86148961 6.4072904 -17.91315201 7.96526081 -23 10 C-23.37125 9.030625 -23.7425 8.06125 -24.125 7.0625 C-25.71052362 3.68859031 -25.71052362 3.68859031 -29.1875 3.125 C-30.115625 3.08375 -31.04375 3.0425 -32 3 C-32 2.67 -32 2.34 -32 2 C-21.25704615 0.3999856 -10.85859801 -0.25991325 0 0 Z " fill="#FAA45C" transform="translate(110,154)"/>
<path d="M0 0 C0.73017334 0.00193359 1.46034668 0.00386719 2.21264648 0.00585938 C7.34937267 0.04702179 12.34881682 0.3848279 17.4375 1.125 C16.1175 1.455 14.7975 1.785 13.4375 2.125 C13.4375 2.785 13.4375 3.445 13.4375 4.125 C12.6940332 4.10928955 11.95056641 4.0935791 11.18457031 4.07739258 C-3.00816611 3.81824939 -16.69469352 3.91745838 -30.68359375 6.46875 C-33.7660857 6.99025921 -36.45712133 7.27316916 -39.5625 7.125 C-39.2325 6.465 -38.9025 5.805 -38.5625 5.125 C-36.77172852 4.54663086 -36.77172852 4.54663086 -34.44140625 4.08984375 C-33.16040039 3.83557617 -33.16040039 3.83557617 -31.85351562 3.57617188 C-30.50290039 3.3219043 -30.50290039 3.3219043 -29.125 3.0625 C-28.25939453 2.88912109 -27.39378906 2.71574219 -26.50195312 2.53710938 C-17.68880507 0.82435313 -8.97645038 -0.05862172 0 0 Z " fill="#EC3EAF" transform="translate(70.5625,117.875)"/>
<path d="M0 0 C-0.33 1.98 -0.66 3.96 -1 6 C-1.66 6 -2.32 6 -3 6 C-3 6.66 -3 7.32 -3 8 C-4.44441792 9.25182887 -5.89298507 10.50089441 -7.39453125 11.68359375 C-9.02843231 12.97338876 -9.02843231 12.97338876 -10.4609375 14.5 C-14.61149512 18.54521351 -20.3360481 21.8894212 -26 23 C-36.14430014 22.85569986 -36.14430014 22.85569986 -39 20 C-38.02417969 19.93941406 -37.04835937 19.87882812 -36.04296875 19.81640625 C-34.77066406 19.73261719 -33.49835938 19.64882812 -32.1875 19.5625 C-30.92292969 19.48128906 -29.65835938 19.40007812 -28.35546875 19.31640625 C-25.00818107 19.12815453 -25.00818107 19.12815453 -22 18 C-22 17.34 -22 16.68 -22 16 C-18.62902617 14.50178941 -16.79557881 14 -13 14 C-12.7628125 13.44828125 -12.525625 12.8965625 -12.28125 12.328125 C-10.68754857 9.43225289 -8.71082727 7.20487963 -6.5 4.75 C-5.7059375 3.85796875 -4.911875 2.9659375 -4.09375 2.046875 C-2 0 -2 0 0 0 Z " fill="#F17C5F" transform="translate(170,202)"/>
<path d="M0 0 C2.31 0 4.62 0 7 0 C7 0.66 7 1.32 7 2 C9.97 2 12.94 2 16 2 C12.5904059 9.30627306 12.5904059 9.30627306 10 11 C7.5625 11 7.5625 11 5 10 C1.87182342 6.87182342 0.50213335 4.39366678 0 0 Z " fill="#FCF7A7" transform="translate(132,203)"/>
<path d="M0 0 C4.95 0 9.9 0 15 0 C10.53588914 6.0666122 7.21993939 8.17249306 0 10 C-1.175625 10.391875 -2.35125 10.78375 -3.5625 11.1875 C-4.366875 11.455625 -5.17125 11.72375 -6 12 C-5.65066406 11.46890625 -5.30132812 10.9378125 -4.94140625 10.390625 C-4.48636719 9.68421875 -4.03132812 8.9778125 -3.5625 8.25 C-2.88380859 7.20585937 -2.88380859 7.20585937 -2.19140625 6.140625 C-0.76483774 3.79566739 -0.76483774 3.79566739 0 0 Z " fill="#FBC526" transform="translate(148,202)"/>
<path d="M0 0 C2 2 2 2 2.25 5.5 C2 9 2 9 0 11 C-3.13704316 11.333728 -5.16554166 11.52849028 -7.875 9.8125 C-9.40659584 7.34492892 -9.42822025 5.85480169 -9 3 C-6.73157826 -0.65467947 -4.03373275 -0.4291205 0 0 Z " fill="#FCF4F6" transform="translate(143,149)"/>
<path d="M0 0 C0.66 0.33 1.32 0.66 2 1 C-2.71676582 7.82391206 -6.28699707 11.71834606 -14.6640625 13.66015625 C-19.09203588 14.30435973 -23.53827824 14.1476305 -28 14 C-28 13.34 -28 12.68 -28 12 C-27.19175781 11.89042969 -26.38351563 11.78085938 -25.55078125 11.66796875 C-24.48214844 11.50941406 -23.41351563 11.35085937 -22.3125 11.1875 C-21.25675781 11.03667969 -20.20101562 10.88585937 -19.11328125 10.73046875 C-15.88553291 9.9731426 -13.78191947 8.75299035 -11 7 C-8.1875 6.8125 -8.1875 6.8125 -6 7 C-5.7525 6.401875 -5.505 5.80375 -5.25 5.1875 C-3.83629988 2.71352479 -2.34944617 1.56629745 0 0 Z " fill="#FDB430" transform="translate(163,202)"/>
<path d="M0 0 C9.56470344 -0.29032827 18.57182803 0.53948097 28 2 C28 2.33 28 2.66 28 3 C26.14375 3.1546875 26.14375 3.1546875 24.25 3.3125 C20.58924746 3.74355522 18.92904242 4.77796782 16 7 C13.71484375 6.671875 13.71484375 6.671875 11 6 C10.12859375 5.78601563 9.2571875 5.57203125 8.359375 5.3515625 C7.06773437 4.99191406 7.06773437 4.99191406 5.75 4.625 C4.87859375 4.39039063 4.0071875 4.15578125 3.109375 3.9140625 C2.41328125 3.61242187 1.7171875 3.31078125 1 3 C0.67 2.01 0.34 1.02 0 0 Z " fill="#F8A55A" transform="translate(171,154)"/>
<path d="M0 0 C2 1 2 1 2 1 Z M-2 1 C-1.34 1.33 -0.68 1.66 0 2 C0.66 2 1.32 2 2 2 C2.66 2.33 3.32 2.66 4 3 C3.34515625 3.3403125 2.6903125 3.680625 2.015625 4.03125 C-4.46582439 7.47337566 -10.53846948 11.27508804 -16.56640625 15.4609375 C-19 17 -19 17 -21 17 C-20.72920883 13.78709934 -19.94104033 12.94709218 -17.48828125 10.74609375 C-16.44027344 9.98425781 -15.39226563 9.22242188 -14.3125 8.4375 C-13.27738281 7.67308594 -12.24226563 6.90867188 -11.17578125 6.12109375 C-8.18235394 4.12179359 -5.31304964 2.40769062 -2 1 Z " fill="#F868A2" transform="translate(79,168)"/>
<path d="M0 0 C1.98 0.66 3.96 1.32 6 2 C3.54457705 7.55700984 0.81236341 11.68756374 -4.8125 14.3125 C-5.8953125 14.6528125 -5.8953125 14.6528125 -7 15 C-7 12 -7 12 -5.1875 9.75 C-2.67030182 6.58552229 -1.46956495 3.74739063 0 0 Z " fill="#DC3F88" transform="translate(175,203)"/>
<path d="M0 0 C3.49983803 -0.08803772 6.99938638 -0.14073608 10.5 -0.1875 C11.97339844 -0.22520508 11.97339844 -0.22520508 13.4765625 -0.26367188 C19.73173059 -0.32622356 24.29212987 0.41107319 30 3 C29.67 3.99 29.34 4.98 29 6 C22 5 22 5 18.625 4.4375 C14.38447021 3.92571192 10.2628329 3.92908411 6 4 C4.68 4 3.36 4 2 4 C1.34 2.68 0.68 1.36 0 0 Z " fill="#FA7E76" transform="translate(159,163)"/>
<path d="M0 0 C6.94073141 1.12684816 13.71284951 7.16743261 18.1875 12.375 C20 15 20 15 20 17 C16.60160211 16.42624451 15.15073521 15.42519574 12.875 12.875 C8.74112337 8.52497295 3.98625448 5.30076001 -1 2 C-0.67 1.34 -0.34 0.68 0 0 Z " fill="#EF6DC0" transform="translate(117,130)"/>
<path d="M0 0 C2.0625 1.75 2.0625 1.75 3 4 C3 5.32 3 6.64 3 8 C-6.30255565 7.42355959 -6.30255565 7.42355959 -10 4 C-11.31836295 3.30419733 -12.64791086 2.62775567 -14 2 C-9.49642417 -0.32442624 -4.96948649 -0.78515971 0 0 Z " fill="#FB8871" transform="translate(84,157)"/>
<path d="M0 0 C0.66 0.33 1.32 0.66 2 1 C1.62488281 1.54527344 1.24976562 2.09054688 0.86328125 2.65234375 C-2.7339538 7.95305535 -5.98158478 13.35048832 -9 19 C-9.33 18.34 -9.66 17.68 -10 17 C-10.99 17.33 -11.98 17.66 -13 18 C-12.505 16.515 -12.505 16.515 -12 15 C-11.01 14.67 -10.02 14.34 -9 14 C-8.12212702 12.20147601 -8.12212702 12.20147601 -7.6875 10.0625 C-7.41486328 8.99708984 -7.41486328 8.99708984 -7.13671875 7.91015625 C-7.09160156 7.27980469 -7.04648438 6.64945313 -7 6 C-8.95216435 4.04783565 -10.53199953 3.15173355 -13 2 C-10.31508215 0.65754108 -7.9149467 0.97450627 -4.97265625 1.0625 C-2.7852789 1.08733016 -2.7852789 1.08733016 0 0 Z " fill="#F89477" transform="translate(122,162)"/>
<path d="M0 0 C1.41702513 0.14230808 2.8336096 0.28900746 4.25 0.4375 C5.43335938 0.55931641 5.43335938 0.55931641 6.640625 0.68359375 C9 1 9 1 10.90429688 1.5 C14.30216852 2.31067581 17.77280886 2.37512486 21.25 2.5625 C21.99507812 2.60568359 22.74015625 2.64886719 23.5078125 2.69335938 C25.338349 2.79896725 27.16915176 2.89994201 29 3 C29 3.33 29 3.66 29 4 C24.38 4.33 19.76 4.66 15 5 C15.99 5.66 16.98 6.32 18 7 C11.7945858 6.51679152 6.00054754 5.66681876 0 4 C0 2.68 0 1.36 0 0 Z " fill="#ECE1D1" transform="translate(210,206)"/>
<path d="M0 0 C6.57815438 3.04644035 12.36986818 6.42355207 18 11 C17.67 11.66 17.34 12.32 17 13 C14.04703576 12.37666027 11.72453208 11.43098208 9.109375 9.93359375 C8.40039062 9.53076172 7.69140625 9.12792969 6.9609375 8.71289062 C6.23132813 8.29201172 5.50171875 7.87113281 4.75 7.4375 C4.00492188 7.01275391 3.25984375 6.58800781 2.4921875 6.15039062 C0.65901039 5.10453958 -1.17082677 4.05283808 -3 3 C-2.01 2.01 -1.02 1.02 0 0 Z " fill="#F961A7" transform="translate(198,167)"/>
<path d="M0 0 C0.33 0 0.66 0 1 0 C1.08738991 4.37487331 1.140524 8.74952078 1.1875 13.125 C1.21263672 14.3625 1.23777344 15.6 1.26367188 16.875 C1.27333984 18.07382813 1.28300781 19.27265625 1.29296875 20.5078125 C1.3086792 21.60754395 1.32438965 22.70727539 1.34057617 23.84033203 C0.84705786 28.41890837 -0.74776255 31.74776255 -4 35 C-6.24658203 35.22705078 -6.24658203 35.22705078 -9.0078125 35.1953125 C-9.99394531 35.18886719 -10.98007813 35.18242187 -11.99609375 35.17578125 C-13.02863281 35.15902344 -14.06117187 35.14226562 -15.125 35.125 C-16.16527344 35.11597656 -17.20554687 35.10695312 -18.27734375 35.09765625 C-20.85179092 35.07403747 -23.42578212 35.04110149 -26 35 C-25.67 34.34 -25.34 33.68 -25 33 C-22.79173622 32.97277483 -20.58337362 32.95350271 -18.375 32.9375 C-16.53035156 32.92009766 -16.53035156 32.92009766 -14.6484375 32.90234375 C-11.32276209 32.99136076 -8.25952412 33.36313913 -5 34 C-5 33.34 -5 32.68 -5 32 C-4.34 32 -3.68 32 -3 32 C-1.18569675 24.92716743 -0.59564132 18.2232602 -0.375 10.9375 C-0.33632812 9.88111328 -0.29765625 8.82472656 -0.2578125 7.73632812 C-0.16446907 5.15771592 -0.07868747 2.57909392 0 0 Z " fill="#D5176A" transform="translate(137,167)"/>
<path d="M0 0 C2.13363651 3.20045476 2.24672228 3.98629436 2.22705078 7.6550293 C2.22689972 8.59577805 2.22674866 9.53652679 2.22659302 10.50578308 C2.21627045 11.51836685 2.20594788 12.53095062 2.1953125 13.57421875 C2.1924826 14.61318802 2.18965271 15.65215729 2.18673706 16.72261047 C2.17553282 20.04435697 2.15042764 23.36583485 2.125 26.6875 C2.11497052 28.93814715 2.10584462 31.18879852 2.09765625 33.43945312 C2.0755927 38.95972722 2.04211271 44.47984442 2 50 C1.67 50 1.34 50 1 50 C0.97494385 49.15518066 0.9498877 48.31036133 0.92407227 47.43994141 C0.80590454 43.50155324 0.68489642 39.56325849 0.5625 35.625 C0.52990082 34.56705231 0.52990082 34.56705231 0.49664307 33.48773193 C0.21047166 24.28846423 -0.12625043 15.09824364 -0.78295898 5.91650391 C-0.89182316 4.27968943 -0.95215633 2.63973292 -1 1 C-0.67 0.67 -0.34 0.34 0 0 Z " fill="#F492CB" transform="translate(140,97)"/>
<path d="M0 0 C1.65 0.33 3.3 0.66 5 1 C4.46080806 5.00281475 2.51830415 6.85442573 -0.3125 9.625 C-1.48232422 10.78902344 -1.48232422 10.78902344 -2.67578125 11.9765625 C-4.77549164 13.80454566 -6.38255673 15.08254566 -9 16 C-9.99 15.67 -10.98 15.34 -12 15 C-11.34 15 -10.68 15 -10 15 C-9.731875 14.401875 -9.46375 13.80375 -9.1875 13.1875 C-8.00082594 11.00152146 -6.90400887 9.58667406 -5 8 C-4.34 8 -3.68 8 -3 8 C-3 7.34 -3 6.68 -3 6 C-2.34 6 -1.68 6 -1 6 C-0.67 4.02 -0.34 2.04 0 0 Z " fill="#E75C78" transform="translate(170,202)"/>
<path d="M0 0 C-0.8125 2.875 -0.8125 2.875 -3 6 C-6.61637152 7.15211836 -10.23022846 7.62878311 -14 8 C-14.33 7.34 -14.66 6.68 -15 6 C-15.99 5.34 -16.98 4.68 -18 4 C-15.37764986 3.13683464 -12.75266548 2.28419221 -10.125 1.4375 C-9.37863281 1.19064453 -8.63226563 0.94378906 -7.86328125 0.68945312 C-2.2265625 -1.11328125 -2.2265625 -1.11328125 0 0 Z " fill="#CCD259" transform="translate(77,203)"/>
<path d="M0 0 C4.60815035 -0.02478935 9.21626153 -0.0429023 13.82446289 -0.05493164 C15.39087602 -0.05994856 16.9572845 -0.06676362 18.52368164 -0.07543945 C20.78012239 -0.08762094 23.03650102 -0.09325481 25.29296875 -0.09765625 C26.33701118 -0.10539818 26.33701118 -0.10539818 27.40214539 -0.11329651 C31.06470152 -0.11371546 34.43868858 0.12851905 38 1 C38 1.33 38 1.66 38 2 C33.39228583 2.19295733 28.78431774 2.37156479 24.17553711 2.53710938 C22.60898062 2.59537576 21.04256276 2.65750649 19.47631836 2.72363281 C17.2201462 2.81820719 14.96383462 2.89870334 12.70703125 2.9765625 C11.66298882 3.02485703 11.66298882 3.02485703 10.59785461 3.0741272 C6.57612728 3.1969875 3.61491953 2.79368573 0 1 C0 0.67 0 0.34 0 0 Z " fill="#ED40B1" transform="translate(189,119)"/>
<path d="M0 0 C-1.04702224 3.18267025 -1.9997532 3.99985415 -4.94140625 5.73828125 C-12.04419827 8.82611856 -17.21800736 10.87841202 -25 9 C-25 8.34 -25 7.68 -25 7 C-25.66 7 -26.32 7 -27 7 C-27 6.34 -27 5.68 -27 5 C-26.16597656 5.11859375 -25.33195313 5.2371875 -24.47265625 5.359375 C-14.16128572 6.5405171 -8.45140572 0 0 0 Z " fill="#E96275" transform="translate(158,218)"/>
<path d="M0 0 C2.875 -0.125 2.875 -0.125 6 0 C8 2 8 2 8.125 4.625 C8.08375 5.40875 8.0425 6.1925 8 7 C9.65 7.33 11.3 7.66 13 8 C13 8.66 13 9.32 13 10 C13.99 10 14.98 10 16 10 C16 11.32 16 12.64 16 14 C15.34 14 14.68 14 14 14 C14 13.34 14 12.68 14 12 C12.88625 11.87625 11.7725 11.7525 10.625 11.625 C7 11 7 11 5 9 C4.875 5.375 4.875 5.375 5 2 C4.01 2.33 3.02 2.66 2 3 C2 2.34 2 1.68 2 1 C1.34 0.67 0.68 0.34 0 0 Z " fill="#F18159" transform="translate(107,202)"/>
<path d="M0 0 C0.2475 0.53625 0.495 1.0725 0.75 1.625 C2.29665225 4.56363927 4.1451936 7.24770663 6 10 C6.33 10.66 6.66 11.32 7 12 C5.68 12 4.36 12 3 12 C3 11.01 3 10.02 3 9 C2.4225 8.855625 1.845 8.71125 1.25 8.5625 C-0.83333333 8.04166667 -2.91666667 7.52083333 -5 7 C-5 5.68 -5 4.36 -5 3 C-5.99 3 -6.98 3 -8 3 C-8 2.34 -8 1.68 -8 1 C-5.36 0.67 -2.72 0.34 0 0 Z " fill="#FDD124" transform="translate(131,202)"/>
<path d="M0 0 C0.66 1.32 1.32 2.64 2 4 C1.34 4 0.68 4 0 4 C0 4.66 0 5.32 0 6 C-2.13770618 7.62677091 -4.2675534 9.13979644 -6.5 10.625 C-7.12003906 11.04523438 -7.74007812 11.46546875 -8.37890625 11.8984375 C-9.91517264 12.93837167 -11.45707524 13.96997056 -13 15 C-13.66 14.67 -14.32 14.34 -15 14 C-10.50891698 8.47035403 -5.87874404 4.03113877 0 0 Z " fill="#F123A3" transform="translate(57,182)"/>
<path d="M0 0 C-0.33 0.66 -0.66 1.32 -1 2 C-9.95896026 4.42954855 -19.70035189 6.24472758 -29 6 C-28.67 5.34 -28.34 4.68 -28 4 C-26.17749023 3.40576172 -26.17749023 3.40576172 -23.80859375 2.9296875 C-22.51405273 2.66865234 -22.51405273 2.66865234 -21.19335938 2.40234375 C-20.28392578 2.22832031 -19.37449219 2.05429688 -18.4375 1.875 C-17.55513672 1.69324219 -16.67277344 1.51148437 -15.76367188 1.32421875 C-10.40707852 0.27111171 -5.45665694 -0.19101483 0 0 Z " fill="#E11BA5" transform="translate(60,119)"/>
<path d="M0 0 C0.99 0.33 1.98 0.66 3 1 C4.20805759 8.24834552 3.97854195 14.87262081 2 22 C1.34 22.33 0.68 22.66 0 23 C0 15.41 0 7.82 0 0 Z " fill="#FBA370" transform="translate(139,27)"/>
<path d="M0 0 C3 3 3 3 4.375 4.5625 C6.40402056 6.3574028 8.46167506 7.1081561 11 8 C11 7.34 11 6.68 11 6 C11.721875 5.731875 12.44375 5.46375 13.1875 5.1875 C15.97590126 4.01017502 18.44095724 2.60854116 21 1 C19.49921893 4.82017001 17.40816719 6.75370799 14 9 C10.11280316 10.26756419 8.21572422 10.06112186 4.25 8.9375 C1 7 1 7 -0.4375 3.8125 C-0.623125 2.884375 -0.80875 1.95625 -1 1 C-0.67 0.67 -0.34 0.34 0 0 Z " fill="#DC408A" transform="translate(129,225)"/>
<path d="M0 0 C0.33 0.66 0.66 1.32 1 2 C-1.39531933 2.64779076 -3.79121748 3.29329009 -6.1875 3.9375 C-6.86103516 4.11990234 -7.53457031 4.30230469 -8.22851562 4.49023438 C-11.80148458 5.4488358 -15.36156738 6.32883282 -19 7 C-19.66 6.01 -20.32 5.02 -21 4 C-18.81613582 3.32151792 -16.62769916 2.6577449 -14.4375 2 C-13.21933594 1.62875 -12.00117188 1.2575 -10.74609375 0.875 C-7.02076651 0.00485057 -3.80934051 -0.15688404 0 0 Z " fill="#EF62BB" transform="translate(193,120)"/>
<path d="M0 0 C0.66 0 1.32 0 2 0 C2.33 6.93 2.66 13.86 3 21 C2.34 21.33 1.68 21.66 1 22 C0.34 22.99 -0.32 23.98 -1 25 C-0.67 16.75 -0.34 8.5 0 0 Z " fill="#F9AACE" transform="translate(139,162)"/>
<path d="M0 0 C7.59 0 15.18 0 23 0 C20.77500037 2.22499963 19.98553189 2.38284941 17 3 C16.14664063 3.22300781 15.29328125 3.44601563 14.4140625 3.67578125 C7.02413694 5.36283709 7.02413694 5.36283709 3.94921875 4.2734375 C2.3125 3.1875 2.3125 3.1875 0 1 C0 0.67 0 0.34 0 0 Z " fill="#F65090" transform="translate(200,167)"/>
<path d="M0 0 C0.33 0 0.66 0 1 0 C1.1875 3.3125 1.1875 3.3125 1 7 C0.5153125 7.433125 0.030625 7.86625 -0.46875 8.3125 C-2.79858104 10.8800689 -2.51939575 13.29179412 -2.6875 16.6875 C-2.75324219 17.86699219 -2.81898438 19.04648438 -2.88671875 20.26171875 C-2.92410156 21.16535156 -2.96148437 22.06898438 -3 23 C-3.33 23 -3.66 23 -4 23 C-4 18.71 -4 14.42 -4 10 C-4.66 10 -5.32 10 -6 10 C-6 15.61 -6 21.22 -6 27 C-6.33 27 -6.66 27 -7 27 C-7 21.06 -7 15.12 -7 9 C-8.32 8.34 -9.64 7.68 -11 7 C-10.67 6.34 -10.34 5.68 -10 5 C-9.34 5.66 -8.68 6.32 -8 7 C-4.91652174 7.16681109 -4.91652174 7.16681109 -2 7 C-1.34 4.69 -0.68 2.38 0 0 Z " fill="#ED4187" transform="translate(145,152)"/>
<path d="M0 0 C1.14868913 2.81161701 1.06728598 3.83628658 -0.109375 6.69921875 C-0.65078125 7.68535156 -1.1921875 8.67148437 -1.75 9.6875 C-4.87858713 15.63980033 -7.32097855 21.37855229 -8.5625 28 C-8.7790625 28.99 -8.7790625 28.99 -9 30 C-9.66 30.33 -10.32 30.66 -11 31 C-9.69854411 19.99420994 -5.95866198 9.35636711 0 0 Z " fill="#F36D7D" transform="translate(129,21)"/>
<path d="M0 0 C2.97 0 5.94 0 9 0 C7.02 0.99 7.02 0.99 5 2 C5 2.66 5 3.32 5 4 C5.66 4 6.32 4 7 4 C7.33 4.99 7.66 5.98 8 7 C8.66 7.33 9.32 7.66 10 8 C10 8.99 10 9.98 10 11 C9.01 11 8.02 11 7 11 C7 10.34 7 9.68 7 9 C5.35 8.67 3.7 8.34 2 8 C1.34 5.36 0.68 2.72 0 0 Z " fill="#F39443" transform="translate(113,201)"/>
<path d="M0 0 C3.3125 0.5625 3.3125 0.5625 7 2 C8.5625 5.125 8.5625 5.125 9.17578125 6.99609375 C10.4734363 10.15105603 12.68851116 12.53109281 14.890625 15.10546875 C16 17 16 17 15.671875 19.23828125 C15.45015625 19.81964844 15.2284375 20.40101563 15 21 C13.03662377 18.51994581 11.36694119 15.9609113 9.75 13.25 C7.3326991 9.30987346 4.47583317 5.96620628 1.35546875 2.56640625 C0 1 0 1 0 0 Z " fill="#F4928B" transform="translate(150,155)"/>
<path d="M0 0 C3.3445493 0.91811157 6.15111104 2.21221557 9.1875 3.875 C8.8575 4.865 8.5275 5.855 8.1875 6.875 C3.13494036 6.24343005 -1.10843201 4.74040627 -5.8125 2.875 C-3.1640625 -0.140625 -3.1640625 -0.140625 0 0 Z " fill="#FDB976" transform="translate(178.8125,158.125)"/>
<path d="M0 0 C2.1875 0.3125 2.1875 0.3125 4 1 C-3.1861727 6.1329805 -7.93682904 7.29002135 -16.609375 6.484375 C-19 6 -19 6 -21 4 C-19.73542969 3.96261719 -18.47085938 3.92523438 -17.16796875 3.88671875 C-15.5077827 3.82106167 -13.84762778 3.75461424 -12.1875 3.6875 C-11.35412109 3.66494141 -10.52074219 3.64238281 -9.66210938 3.61914062 C-8.85966797 3.58369141 -8.05722656 3.54824219 -7.23046875 3.51171875 C-6.49207764 3.48553467 -5.75368652 3.45935059 -4.99291992 3.43237305 C-2.5210782 2.89609574 -1.70634366 1.80105621 0 0 Z " fill="#EF7664" transform="translate(152,218)"/>
<path d="M0 0 C0 0.66 0 1.32 0 2 C3.3 2 6.6 2 10 2 C9.01 3.485 9.01 3.485 8 5 C5.40990446 5.24950462 3.0812871 5.32719737 0.5 5.25 C-0.18964844 5.24484375 -0.87929687 5.2396875 -1.58984375 5.234375 C-6.69032948 5.15483526 -6.69032948 5.15483526 -9 4 C-9 3.34 -9 2.68 -9 2 C-3.375 0 -3.375 0 0 0 Z " fill="#F76189" transform="translate(206,163)"/>
<path d="M0 0 C5.27749285 0.53851968 9.25645564 1.77343836 14 4 C14 4.66 14 5.32 14 6 C13.43152344 5.84402344 12.86304688 5.68804687 12.27734375 5.52734375 C7.14115406 4.23257807 3.27130646 3.88491594 -2 5 C-2.969375 5.185625 -3.93875 5.37125 -4.9375 5.5625 C-5.618125 5.706875 -6.29875 5.85125 -7 6 C-5.49336217 2.98672434 -2.96833589 2.38943382 0 1 C0 0.67 0 0.34 0 0 Z " fill="#FB7D78" transform="translate(201,158)"/>
<path d="M0 0 C0.33 0 0.66 0 1 0 C1 7.26 1 14.52 1 22 C2.32 21.67 3.64 21.34 5 21 C5.99 21.66 6.98 22.32 8 23 C7.06027344 23.19916016 7.06027344 23.19916016 6.1015625 23.40234375 C4.87566406 23.66724609 4.87566406 23.66724609 3.625 23.9375 C2.81289062 24.11152344 2.00078125 24.28554687 1.1640625 24.46484375 C-1.029463 24.92330693 -1.029463 24.92330693 -3 26 C-3 24.68 -3 23.36 -3 22 C-2.34 21.67 -1.68 21.34 -1 21 C-0.67 14.07 -0.34 7.14 0 0 Z " fill="#DA3F98" transform="translate(138,125)"/>
<path d="M0 0 C0.73734375 0.10828125 1.4746875 0.2165625 2.234375 0.328125 C1.533125 0.988125 0.831875 1.648125 0.109375 2.328125 C-2.79481271 5.19921656 -5.09507117 8.4158041 -7.43359375 11.75390625 C-7.87316406 12.27339844 -8.31273438 12.79289063 -8.765625 13.328125 C-9.425625 13.328125 -10.085625 13.328125 -10.765625 13.328125 C-10.765625 14.978125 -10.765625 16.628125 -10.765625 18.328125 C-11.425625 18.328125 -12.085625 18.328125 -12.765625 18.328125 C-13.095625 17.338125 -13.425625 16.348125 -13.765625 15.328125 C-13.105625 15.328125 -12.445625 15.328125 -11.765625 15.328125 C-11.67796875 14.78671875 -11.5903125 14.2453125 -11.5 13.6875 C-10.52231625 10.54643092 -8.90642139 8.26504619 -7.015625 5.578125 C-6.00242187 4.10085937 -6.00242187 4.10085937 -4.96875 2.59375 C-2.765625 0.328125 -2.765625 0.328125 0 0 Z " fill="#942B7A" transform="translate(95.765625,204.671875)"/>
<path d="M0 0 C0.33 0.66 0.66 1.32 1 2 C2.32 2 3.64 2 5 2 C5 2.66 5 3.32 5 4 C6.65 4 8.3 4 10 4 C9.34 3.34 8.68 2.68 8 2 C8.66 1.34 9.32 0.68 10 0 C11.5 1.3125 11.5 1.3125 13 3 C13 3.99 13 4.98 13 6 C10.03 6 7.06 6 4 6 C4 5.34 4 4.68 4 4 C1.69 4 -0.62 4 -3 4 C-2.01 2.68 -1.02 1.36 0 0 Z " fill="#F9ECC5" transform="translate(135,199)"/>
<path d="M0 0 C0.33 0 0.66 0 1 0 C1.02505615 0.66008057 1.0501123 1.32016113 1.07592773 2.00024414 C1.19271752 5.02115369 1.31506446 8.04181422 1.4375 11.0625 C1.47681641 12.10083984 1.51613281 13.13917969 1.55664062 14.20898438 C1.77666344 19.54030641 2.1116184 24.73689893 3 30 C3.66 30 4.32 30 5 30 C4.67 30.99 4.34 31.98 4 33 C1.7522025 30.94766315 0.9977758 29.99332739 0 27 C-0.08315752 24.93501108 -0.10735878 22.8674211 -0.09765625 20.80078125 C-0.09443359 19.59228516 -0.09121094 18.38378906 -0.08789062 17.13867188 C-0.07951172 15.87603516 -0.07113281 14.61339844 -0.0625 13.3125 C-0.05573242 11.40114258 -0.05573242 11.40114258 -0.04882812 9.45117188 C-0.03702873 6.30073436 -0.02056597 3.15039051 0 0 Z " fill="#DF1B71" transform="translate(142,168)"/>
<path d="M0 0 C5.61 0.33 11.22 0.66 17 1 C12.46563193 4.40077605 12.46563193 4.40077605 8.5 4.3125 C7.7471875 4.30863281 6.994375 4.30476562 6.21875 4.30078125 C3.78939106 3.97144914 2.11777285 3.20809315 0 2 C0 1.34 0 0.68 0 0 Z " fill="#FCD685" transform="translate(150,153)"/>
<path d="M0 0 C0.66 0.33 1.32 0.66 2 1 C0.33126073 2.68986255 -1.35587051 4.34914272 -3.0625 6 C-3.52849609 6.47695312 -3.99449219 6.95390625 -4.47460938 7.4453125 C-7.3779983 10.21044481 -8.81982629 10.9854552 -12.87109375 11.3125 C-14.41990234 11.1578125 -14.41990234 11.1578125 -16 11 C-13.82604981 8.60045121 -11.81224619 7.27606053 -8.875 5.9375 C-5.79891979 4.65691677 -5.79891979 4.65691677 -4 2 C-2.0625 0.8125 -2.0625 0.8125 0 0 Z " fill="#E6567D" transform="translate(162,216)"/>
<path d="M0 0 C0.66 0.33 1.32 0.66 2 1 C-4.2293578 10.01223242 -4.2293578 10.01223242 -9 12 C-9.66 11.67 -10.32 11.34 -11 11 C-9.73347137 9.53792657 -8.46161082 8.08047074 -7.1875 6.625 C-6.47980469 5.81289062 -5.77210938 5.00078125 -5.04296875 4.1640625 C-3 2 -3 2 0 0 Z " fill="#FAA439" transform="translate(163,202)"/>
<path d="M0 0 C0.66 1.32 1.32 2.64 2 4 C-2.97063121 4.91297308 -7.02936879 4.91297308 -12 4 C-8.47340299 0.47340299 -4.89254977 -0.27957427 0 0 Z " fill="#FB8C68" transform="translate(102,163)"/>
<path d="M0 0 C1.48039971 0.64300189 2.95928782 1.28948499 4.4375 1.9375 C5.26121094 2.29714844 6.08492187 2.65679687 6.93359375 3.02734375 C9 4 9 4 10 5 C11.68183948 5.23287008 13.3712416 5.41264166 15.0625 5.5625 C15.98160156 5.64628906 16.90070313 5.73007813 17.84765625 5.81640625 C18.91306641 5.90728516 18.91306641 5.90728516 20 6 C20 6.33 20 6.66 20 7 C6.3667426 7.55353075 6.3667426 7.55353075 0 4 C0 2.68 0 1.36 0 0 Z " fill="#F89547" transform="translate(123,212)"/>
<path d="M0 0 C3.65628954 0.43716505 5.58712749 2.12153353 8.25 4.5625 C8.95640625 5.20316406 9.6628125 5.84382812 10.390625 6.50390625 C10.92171875 6.99761719 11.4528125 7.49132812 12 8 C11.67 8.66 11.34 9.32 11 10 C7.0329745 8.67765817 4.80225913 7.08248505 2 4 C1.4225 3.4225 0.845 2.845 0.25 2.25 C-0.1625 1.8375 -0.575 1.425 -1 1 C-0.67 0.67 -0.34 0.34 0 0 Z " fill="#F124A5" transform="translate(222,184)"/>
<path d="M0 0 C3.3 1.65 6.6 3.3 10 5 C9.67 5.66 9.34 6.32 9 7 C3.58461538 7.36923077 3.58461538 7.36923077 0.625 5.5 C0.08875 5.005 -0.4475 4.51 -1 4 C-0.67 2.68 -0.34 1.36 0 0 Z " fill="#FA9893" transform="translate(188,162)"/>
<path d="M0 0 C2.97 0.33 5.94 0.66 9 1 C9.33 2.65 9.66 4.3 10 6 C6.7 5.34 3.4 4.68 0 4 C0 2.68 0 1.36 0 0 Z " fill="#DFDA9A" transform="translate(210,206)"/>
<path d="M0 0 C0 0.66 0 1.32 0 2 C2.64 2 5.28 2 8 2 C7.01 3.485 7.01 3.485 6 5 C5.18015625 4.855625 4.3603125 4.71125 3.515625 4.5625 C2.43796875 4.376875 1.3603125 4.19125 0.25 4 C-0.81734375 3.814375 -1.8846875 3.62875 -2.984375 3.4375 C-6.15189374 2.90428357 -6.15189374 2.90428357 -10 3 C-9.67 2.01 -9.34 1.02 -9 0 C-5.62182575 -0.84454356 -3.32534757 -1.10844919 0 0 Z " fill="#F86B81" transform="translate(75,163)"/>
<path d="M0 0 C2.64 1.32 5.28 2.64 8 4 C7.67 4.99 7.34 5.98 7 7 C2.59885603 6.49701212 0.28804981 4.91227269 -3 2 C-2.01 1.34 -1.02 0.68 0 0 Z " fill="#F977A0" transform="translate(198,167)"/>
<path d="M0 0 C10.55808656 -0.18451025 10.55808656 -0.18451025 15 1 C13.88671875 2.55078125 13.88671875 2.55078125 12 4 C9.08203125 3.85546875 9.08203125 3.85546875 5.8125 3.1875 C4.72582031 2.97480469 3.63914062 2.76210937 2.51953125 2.54296875 C1.27236328 2.27419922 1.27236328 2.27419922 0 2 C0 1.34 0 0.68 0 0 Z " fill="#EE56B7" transform="translate(84,120)"/>
<path d="M0 0 C4.62 0 9.24 0 14 0 C14 0.33 14 0.66 14 1 C11.36 1 8.72 1 6 1 C6.33 2.98 6.66 4.96 7 7 C5.68 6.67 4.36 6.34 3 6 C3 5.01 3 4.02 3 3 C2.34 3 1.68 3 1 3 C0.67 2.01 0.34 1.02 0 0 Z " fill="#F7AF2C" transform="translate(117,202)"/>
<path d="M0 0 C7.51806849 -0.44032071 13.84224277 0.71387222 21 3 C21 3.66 21 4.32 21 5 C13.94090922 3.87723429 6.96156852 2.62436599 0 1 C0 0.67 0 0.34 0 0 Z " fill="#9A1384" transform="translate(158,199)"/>
<path d="M0 0 C3.63 0 7.26 0 11 0 C9 5 9 5 7 6 C7 5.34 7 4.68 7 4 C6.401875 3.896875 5.80375 3.79375 5.1875 3.6875 C3 3 3 3 0 0 Z " fill="#F7DB88" transform="translate(119,153)"/>
<path d="M0 0 C-5.03244831 2.81032828 -9.18021307 4.41802131 -15 5 C-15.99 5.495 -15.99 5.495 -17 6 C-16.67 4.68 -16.34 3.36 -16 2 C-15.31292969 1.86722656 -14.62585938 1.73445313 -13.91796875 1.59765625 C-12.56638672 1.33275391 -12.56638672 1.33275391 -11.1875 1.0625 C-9.84751953 0.80146484 -9.84751953 0.80146484 -8.48046875 0.53515625 C-2.35755258 -0.78585086 -2.35755258 -0.78585086 0 0 Z " fill="#924479" transform="translate(181,262)"/>
<path d="M0 0 C0.8971875 0.309375 0.8971875 0.309375 1.8125 0.625 C0.1625 1.285 -1.4875 1.945 -3.1875 2.625 C-3.23648438 3.22828125 -3.28546875 3.8315625 -3.3359375 4.453125 C-3.41070312 5.25234375 -3.48546875 6.0515625 -3.5625 6.875 C-3.63210937 7.66390625 -3.70171875 8.4528125 -3.7734375 9.265625 C-4.20257113 11.710877 -4.97350638 13.47336903 -6.1875 15.625 C-6.75 13.6875 -6.75 13.6875 -7.1875 11.625 C-6.8575 11.295 -6.5275 10.965 -6.1875 10.625 C-5.94570596 8.33691198 -5.80413401 6.05034185 -5.6640625 3.75390625 C-4.93640208 0.50329207 -3.26613832 -0.55990943 0 0 Z " fill="#86466F" transform="translate(190.1875,243.375)"/>
<path d="M0 0 C0.66 0.33 1.32 0.66 2 1 C3.54023996 1.06950541 5.08334988 1.08452357 6.625 1.0625 C7.44226563 1.05347656 8.25953125 1.04445312 9.1015625 1.03515625 C9.72804687 1.02355469 10.35453125 1.01195312 11 1 C9.68 2.65 8.36 4.3 7 6 C3.75791433 5.64950425 2.38472296 5.43778819 0.1875 2.9375 C-0.4003125 1.9784375 -0.4003125 1.9784375 -1 1 C-0.67 0.67 -0.34 0.34 0 0 Z " fill="#FCF187" transform="translate(135,208)"/>
<path d="M0 0 C-2.6860286 1.79068573 -4.6626589 2.66055791 -7.6875 3.625 C-8.89986328 4.01558594 -8.89986328 4.01558594 -10.13671875 4.4140625 C-11.05904297 4.70410156 -11.05904297 4.70410156 -12 5 C-12 4.34 -12 3.68 -12 3 C-13.98 3 -15.96 3 -18 3 C-18 2.67 -18 2.34 -18 2 C-11.88019467 0.59545452 -6.28260706 -0.23268915 0 0 Z " fill="#ECD7DE" transform="translate(78,156)"/>
<path d="M0 0 C0.66 0 1.32 0 2 0 C2.36625971 4.51720311 2.36625971 4.51720311 0.625 6.8125 C-1 8 -1 8 -3 8 C-3 7.34 -3 6.68 -3 6 C-2.34 6 -1.68 6 -1 6 C-0.67 4.02 -0.34 2.04 0 0 Z M-5 8 C-4.34 8.33 -3.68 8.66 -3 9 C-6.465 11.97 -6.465 11.97 -10 15 C-8.38262276 11.76524552 -7.52370777 10.29427979 -5 8 Z M-12 15 C-10 16 -10 16 -10 16 Z " fill="#EB6A6F" transform="translate(170,202)"/>
<path d="M0 0 C3.96 0 7.92 0 12 0 C11.67 0.99 11.34 1.98 11 3 C7.75 3.75 7.75 3.75 4 4 C2.68 2.68 1.36 1.36 0 0 Z " fill="#FBC456" transform="translate(98,154)"/>
<path d="M0 0 C0.66 0 1.32 0 2 0 C3 3 3 3 2.00390625 5.26171875 C1.52824219 6.06222656 1.05257812 6.86273438 0.5625 7.6875 C-0.14712891 8.89986328 -0.14712891 8.89986328 -0.87109375 10.13671875 C-1.42990234 11.05904297 -1.42990234 11.05904297 -2 12 C-2.33 11.34 -2.66 10.68 -3 10 C-3.99 10.33 -4.98 10.66 -6 11 C-5.67 10.01 -5.34 9.02 -5 8 C-4.01 7.67 -3.02 7.34 -2 7 C-0.77030122 3.48809191 -0.77030122 3.48809191 0 0 Z " fill="#EB8F76" transform="translate(115,169)"/>
<path d="M0 0 C3.3 0 6.6 0 10 0 C9.67 1.65 9.34 3.3 9 5 C7.68 5.33 6.36 5.66 5 6 C4.87625 5.071875 4.87625 5.071875 4.75 4.125 C4.08785794 1.46510021 4.08785794 1.46510021 0 0 Z " fill="#FDB265" transform="translate(113,158)"/>
<path d="M0 0 C0 0.66 0 1.32 0 2 C0.66 2.33 1.32 2.66 2 3 C1.2575 3.12375 0.515 3.2475 -0.25 3.375 C-2.97537272 3.86889456 -2.97537272 3.86889456 -5.125 5.125 C-7 6 -7 6 -10 5 C-4.5 0 -4.5 0 0 0 Z " fill="#F14095" transform="translate(59,168)"/>
<path d="M0 0 C0.86625 0.3403125 0.86625 0.3403125 1.75 0.6875 C-1.02280706 3.76839673 -3.31326356 5.37525452 -7.25 6.6875 C-6.87492618 3.96821483 -6.40781339 2.84531339 -4.4375 0.875 C-2.25 -0.3125 -2.25 -0.3125 0 0 Z " fill="#F74BA7" transform="translate(65.25,178.3125)"/>
<path d="M0 0 C0.90105469 0.01804688 1.80210937 0.03609375 2.73046875 0.0546875 C3.41753906 0.07789063 4.10460937 0.10109375 4.8125 0.125 C2.04059708 2.89690292 -0.35502656 2.60534258 -4.1875 3.125 C-7.00612203 4.10049761 -7.00612203 4.10049761 -9.1875 5.125 C-7.51320877 0.1021263 -4.80985821 -0.12493138 0 0 Z " fill="#FD9165" transform="translate(196.1875,156.875)"/>
<path d="M0 0 C-0.33 0.66 -0.66 1.32 -1 2 C-3.88211302 2.96070434 -5.69850044 3.10581883 -8.6875 3.0625 C-9.89986328 3.04896484 -9.89986328 3.04896484 -11.13671875 3.03515625 C-12.05904297 3.01775391 -12.05904297 3.01775391 -13 3 C-12 1 -12 1 -10.4375 0.375 C-6.93601819 -0.16368951 -3.54193167 -0.05903219 0 0 Z " fill="#E928AA" transform="translate(60,119)"/>
<path d="M0 0 C2.31 1.65 4.62 3.3 7 5 C6.67 5.66 6.34 6.32 6 7 C2.62496331 5.8141763 0.35277269 4.72426311 -2 2 C-1.34 1.34 -0.68 0.68 0 0 Z " fill="#F644A8" transform="translate(216,178)"/>
<path d="M0 0 C2 1 2 1 2 1 Z M-2 1 C-1.34 1.33 -0.68 1.66 0 2 C0.66 2 1.32 2 2 2 C2.66 2.33 3.32 2.66 4 3 C-1.41538462 6.07692308 -1.41538462 6.07692308 -4.375 5.6875 C-4.91125 5.460625 -5.4475 5.23375 -6 5 C-4.68 3.68 -3.36 2.36 -2 1 Z " fill="#F9819B" transform="translate(79,168)"/>
<path d="M0 0 C1.32 0 2.64 0 4 0 C4.66 1.32 5.32 2.64 6 4 C5.01 4.99 4.02 5.98 3 7 C0 3.375 0 3.375 0 0 Z " fill="#E6E2DF" transform="translate(109,265)"/>
<path d="M0 0 C-0.66 1.65 -1.32 3.3 -2 5 C-2.99 5 -3.98 5 -5 5 C-5.33 4.34 -5.66 3.68 -6 3 C-6.99 2.34 -7.98 1.68 -9 1 C-5.92677456 0.08941469 -3.19902639 -0.08886184 0 0 Z " fill="#DDD297" transform="translate(68,206)"/>
<path d="M0 0 C1.95825873 -0.02694851 3.91662226 -0.04637218 5.875 -0.0625 C6.96554688 -0.07410156 8.05609375 -0.08570313 9.1796875 -0.09765625 C12 0 12 0 14 1 C13.67 1.99 13.34 2.98 13 4 C8.33333333 3.33333333 3.66666667 2.66666667 -1 2 C-0.67 1.34 -0.34 0.68 0 0 Z " fill="#F96E7D" transform="translate(175,165)"/>
<path d="M0 0 C0.66 0.33 1.32 0.66 2 1 C1.50628906 1.43570313 1.01257812 1.87140625 0.50390625 2.3203125 C-3.73531982 6.21395104 -3.73531982 6.21395104 -5.9375 11.4375 C-5.958125 12.283125 -5.97875 13.12875 -6 14 C-6.33 14 -6.66 14 -7 14 C-7.31974464 9.92325579 -7.43803342 7.67970704 -5.1875 4.1875 C-3 2 -3 2 0 0 Z " fill="#BF1F92" transform="translate(12,118)"/>
<path d="M0 0 C2.31 0 4.62 0 7 0 C7.33 0.99 7.66 1.98 8 3 C5.69 3.33 3.38 3.66 1 4 C0.67 2.68 0.34 1.36 0 0 Z " fill="#EBECC9" transform="translate(55,208)"/>
<path d="M0 0 C1.41623216 -0.05447047 2.83308191 -0.09300508 4.25 -0.125 C5.03890625 -0.14820313 5.8278125 -0.17140625 6.640625 -0.1953125 C9.20731941 0.0171622 10.7916067 0.71345895 13 2 C12.34 2 11.68 2 11 2 C11 2.66 11 3.32 11 4 C7.37 3.01 3.74 2.02 0 1 C0 0.67 0 0.34 0 0 Z " fill="#F3DADC" transform="translate(199,156)"/>
<path d="M0 0 C0.33 0 0.66 0 1 0 C1.55353075 12.66970387 1.55353075 12.66970387 -2 18 C-2.625 16.25 -2.625 16.25 -3 14 C-2.690625 13.401875 -2.38125 12.80375 -2.0625 12.1875 C-0.82210104 9.63373744 -0.59769705 7.57082929 -0.375 4.75 C-0.30023438 3.85796875 -0.22546875 2.9659375 -0.1484375 2.046875 C-0.09945312 1.37140625 -0.05046875 0.6959375 0 0 Z " fill="#853D6E" transform="translate(196,224)"/>
<path d="M0 0 C1.98 0 3.96 0 6 0 C6.66 1.65 7.32 3.3 8 5 C7.01 5 6.02 5 5 5 C5 4.34 5 3.68 5 3 C3.68 3 2.36 3 1 3 C0.67 2.01 0.34 1.02 0 0 Z " fill="#F17B5E" transform="translate(123,217)"/>
<path d="M0 0 C2.97 0 5.94 0 9 0 C9 0.99 9 1.98 9 3 C6.5 5.1875 6.5 5.1875 4 7 C4.875 3.125 4.875 3.125 6 2 C3.03 1.505 3.03 1.505 0 1 C0 0.67 0 0.34 0 0 Z " fill="#EC874B" transform="translate(158,201)"/>
<path d="M0 0 C2.125 0.375 2.125 0.375 4 1 C-0.60516269 4.45387201 -4.36007889 5.83311977 -10 7 C-7.62671491 4.25198568 -5.3518635 3.28917827 -2 2 C-1.34 1.34 -0.68 0.68 0 0 Z " fill="#ED6E6B" transform="translate(152,218)"/>
<path d="M0 0 C1.32 0 2.64 0 4 0 C4.38897161 1.62171239 4.76078298 3.24754925 5.125 4.875 C5.33382812 5.77992188 5.54265625 6.68484375 5.7578125 7.6171875 C5.83773437 8.40351563 5.91765625 9.18984375 6 10 C5.34 10.66 4.68 11.32 4 12 C3.81824219 10.95199219 3.81824219 10.95199219 3.6328125 9.8828125 C3.46523437 8.97273437 3.29765625 8.06265625 3.125 7.125 C2.96257812 6.22007812 2.80015625 5.31515625 2.6328125 4.3828125 C2.16955297 1.83494012 2.16955297 1.83494012 0 0 Z " fill="#853D71" transform="translate(90,245)"/>
<path d="M0 0 C0.66 0.66 1.32 1.32 2 2 C0.02 4.97 -1.96 7.94 -4 11 C-4.33 10.01 -4.66 9.02 -5 8 C-3.71937515 6.2925002 -2.38232443 4.62626404 -1 3 C-0.67 2.01 -0.34 1.02 0 0 Z " fill="#D32F8F" transform="translate(179,204)"/>
<path d="M0 0 C0.66 0.33 1.32 0.66 2 1 C-0.10618315 3.94865641 -2.39391727 6.4837822 -5 9 C-5.66 8.67 -6.32 8.34 -7 8 C-4.69 5.36 -2.38 2.72 0 0 Z " fill="#EB0FA0" transform="translate(49,188)"/>
<path d="M0 0 C0.93065133 2.60582371 1.14917407 3.64198224 0.0625 6.25 C-0.4634375 7.11625 -0.4634375 7.11625 -1 8 C-1.99 7.67 -2.98 7.34 -4 7 C-3.6875 5.0625 -3.6875 5.0625 -3 3 C-2.01 2.67 -1.02 2.34 0 2 C0 1.34 0 0.68 0 0 Z " fill="#D4107C" transform="translate(134,148)"/>
<path d="M0 0 C2.64 0 5.28 0 8 0 C8.66 1.32 9.32 2.64 10 4 C9.01 3.34 8.02 2.68 7 2 C4.5 1.58333333 4.5 1.58333333 2 2 C0.18523997 3.39585785 0.18523997 3.39585785 -1 5 C-0.67 3.35 -0.34 1.7 0 0 Z " fill="#A01783" transform="translate(135,264)"/>
<path d="M0 0 C2.31 0 4.62 0 7 0 C7 0.66 7 1.32 7 2 C9.31 2 11.62 2 14 2 C14 2.33 14 2.66 14 3 C4.58997722 3.3690205 4.58997722 3.3690205 0 1 C0 0.67 0 0.34 0 0 Z " fill="#FCF9BC" transform="translate(132,203)"/>
<path d="M0 0 C0.66 0.33 1.32 0.66 2 1 C2.1875 4.3125 2.1875 4.3125 2 8 C1.01 8.99 0.02 9.98 -1 11 C-0.67 7.37 -0.34 3.74 0 0 Z " fill="#BA3B9A" transform="translate(273,125)"/>
<path d="M0 0 C0 1.98 0 3.96 0 6 C-1.32 6 -2.64 6 -4 6 C-4 4.35 -4 2.7 -4 1 C-2 0 -2 0 0 0 Z " fill="#D2CC73" transform="translate(71,204)"/>
<path d="M0 0 C0.66 0 1.32 0 2 0 C2.26218749 3.14624993 2.24754367 4.61837017 0.5 7.3125 C-0.2425 8.1478125 -0.2425 8.1478125 -1 9 C-1.09765625 2.84765625 -1.09765625 2.84765625 -1 1 C-0.67 0.67 -0.34 0.34 0 0 Z " fill="#F8CDD8" transform="translate(139,178)"/>
<path d="M0 0 C1.875 0.1875 1.875 0.1875 4 1 C5.25 3.5625 5.25 3.5625 6 6 C4.125 5.8125 4.125 5.8125 2 5 C0.75 2.4375 0.75 2.4375 0 0 Z " fill="#FC9067" transform="translate(81,157)"/>
<path d="M0 0 C1.32 0 2.64 0 4 0 C4.33 1.65 4.66 3.3 5 5 C3.35 4.67 1.7 4.34 0 4 C0 2.68 0 1.36 0 0 Z " fill="#D7DA7D" transform="translate(210,206)"/>
<path d="M0 0 C1.60332791 -0.08121924 3.20784026 -0.13929134 4.8125 -0.1875 C6.15248047 -0.23970703 6.15248047 -0.23970703 7.51953125 -0.29296875 C10.41647515 0.04918998 11.22555028 0.75393573 13 3 C11.7315625 2.7834375 11.7315625 2.7834375 10.4375 2.5625 C6.96406851 1.9941203 3.48554338 1.48797607 0 1 C0 0.67 0 0.34 0 0 Z " fill="#A81A78" transform="translate(158,199)"/>
<path d="M0 0 C3 0.25 3 0.25 5 2.25 C1.30581799 3.481394 -1.2056261 2.89432764 -5 2.25 C-3 0.25 -3 0.25 0 0 Z " fill="#FA7F71" transform="translate(95,164.75)"/>
<path d="M0 0 C1.98 0 3.96 0 6 0 C5.67 1.32 5.34 2.64 5 4 C2.525 3.01 2.525 3.01 0 2 C0 1.34 0 0.68 0 0 Z " fill="#FCC157" transform="translate(171,154)"/>
<path d="M0 0 C3.375 -0.1875 3.375 -0.1875 7 0 C7.66 0.99 8.32 1.98 9 3 C6.50907189 4.24546405 5.58919267 3.7767578 3 3 C3 2.34 3 1.68 3 1 C2.01 0.67 1.02 0.34 0 0 Z " fill="#FCF9D4" transform="translate(137,200)"/>
<path d="M0 0 C2.31 0.66 4.62 1.32 7 2 C6.34 3.32 5.68 4.64 5 6 C3.35 4.02 1.7 2.04 0 0 Z " fill="#FBB088" transform="translate(150,155)"/>
<path d="M0 0 C1.32 0 2.64 0 4 0 C2.25 4.875 2.25 4.875 0 6 C0 4.02 0 2.04 0 0 Z " fill="#F9D6A1" transform="translate(126,153)"/>
<path d="M0 0 C1.32 1.32 2.64 2.64 4 4 C3.67 4.66 3.34 5.32 3 6 C2.34 5.67 1.68 5.34 1 5 C0.67 5.66 0.34 6.32 0 7 C-0.38133299 5.0085944 -0.71325582 3.00720923 -1 1 C-0.67 0.67 -0.34 0.34 0 0 Z " fill="#D80E76" transform="translate(146,149)"/>
<path d="M0 0 C0.6875 1.6875 0.6875 1.6875 1 4 C-0.4375 6.75 -0.4375 6.75 -2 9 C-3 6 -3 6 -1.5625 2.8125 C-1.046875 1.884375 -0.53125 0.95625 0 0 Z " fill="#FA9C55" transform="translate(129,21)"/>
</svg>